<svg version="1.1" id="Layer_1" xmlns="http://www.w3.org/2000/svg" xmlns:xlink="http://www.w3.org/1999/xlink" x="0px" y="0px"
	 width="100%" viewBox="0 0 1080 1080" enable-background="new 0 0 1080 1080" xml:space="preserve">
<path fill="#000000" opacity="1.000000" stroke="none" 
	d="
M577.000000,1081.000000 
	C384.688812,1081.000000 192.877609,1081.000000 1.033205,1081.000000 
	C1.033205,721.063660 1.033205,361.127350 1.033205,1.095518 
	C360.894745,1.095518 720.789551,1.095518 1080.842163,1.095518 
	C1080.842163,360.999939 1080.842163,720.999939 1080.842163,1081.000000 
	C913.126892,1081.000000 745.313416,1081.000000 577.000000,1081.000000 
M1052.985840,633.411316 
	C1055.657227,611.098145 1059.488403,588.846252 1060.671387,566.454407 
	C1061.835938,544.413818 1061.088379,522.183472 1059.720947,500.126740 
	C1058.681274,483.359100 1056.261475,466.544342 1052.831787,450.089050 
	C1047.882935,426.344666 1042.010742,402.753265 1035.460693,379.397186 
	C1031.679077,365.912964 1026.303345,352.797455 1020.721497,339.916199 
	C1013.609985,323.504761 1006.400574,307.031525 997.698730,291.441406 
	C988.041138,274.138916 977.468079,257.208832 965.807617,241.198914 
	C952.186157,222.496490 937.744263,204.253586 922.234497,187.098618 
	C901.623047,164.300980 879.062744,143.281189 853.838074,125.594994 
	C833.008118,110.990143 811.568970,97.184929 789.802307,84.012543 
	C777.946594,76.837883 764.951050,71.490288 752.287048,65.719337 
	C726.803223,54.106438 700.585571,44.303375 673.281128,38.079479 
	C650.591370,32.907467 627.637146,28.735111 604.643433,25.114902 
	C589.976440,22.805685 575.042358,21.527729 560.195190,21.176701 
	C535.139648,20.584318 510.031494,20.310865 485.097809,23.969032 
	C472.184967,25.863550 459.154572,27.085030 446.335266,29.462461 
	C418.035889,34.710777 390.325134,42.217899 363.211304,51.997871 
	C338.510040,60.907639 314.638489,71.740982 291.632019,84.194717 
	C274.364990,93.541603 257.702057,104.279343 241.821915,115.842308 
	C222.984818,129.558350 204.542984,144.011887 187.258194,159.617126 
	C164.323669,180.323166 143.183563,203.007874 125.409004,228.372574 
	C110.812866,249.201569 97.090012,270.690125 83.940575,292.466309 
	C76.774368,304.333984 71.365768,317.298523 65.588455,329.961823 
	C54.101959,355.139069 45.104149,381.224518 37.994148,407.964966 
	C28.612070,443.250671 22.969200,479.201752 21.252480,515.593506 
	C20.212074,537.648438 20.912531,559.869934 22.281124,581.926575 
	C23.321539,598.694214 25.739262,615.509460 29.171972,631.963867 
	C34.125645,655.708923 39.996513,679.303162 46.564854,702.655457 
	C50.401619,716.296326 55.851173,729.560242 61.489883,742.598083 
	C68.458618,758.711182 75.538956,774.883057 84.103828,790.170776 
	C94.032883,807.893433 104.788399,825.292419 116.720200,841.716675 
	C130.124252,860.167542 144.485397,878.059692 159.801575,894.951355 
	C180.447144,917.720886 202.983871,938.760803 228.208389,956.445618 
	C249.037628,971.048828 270.488770,984.833801 292.257477,998.000732 
	C304.116058,1005.173523 317.113983,1010.512939 329.765350,1016.314331 
	C355.227417,1027.989990 381.480499,1037.688721 408.776611,1043.927979 
	C431.462067,1049.113281 454.420380,1053.261108 477.411499,1056.896362 
	C491.914124,1059.189209 506.681122,1060.479126 521.362305,1060.824585 
	C546.584412,1061.418213 571.858643,1061.691528 596.957886,1058.027710 
	C609.871887,1056.142456 622.900208,1054.905273 635.717163,1052.517578 
	C663.848877,1047.276855 691.387024,1039.796387 718.375427,1030.134399 
	C743.267700,1021.222961 767.244751,1010.248596 790.417664,997.764038 
	C807.702148,988.451904 824.354431,977.685791 840.234497,966.120239 
	C859.070068,952.402222 877.508423,937.943848 894.789490,922.334534 
	C917.594238,901.735962 937.978027,878.721375 956.509644,854.096008 
	C971.964233,833.559387 985.822632,812.010681 998.167053,789.527222 
	C1005.178528,776.756592 1011.787231,763.650696 1017.203186,750.144775 
	C1025.436035,729.614380 1033.221802,708.837646 1039.789185,687.727417 
	C1045.229370,670.240295 1048.634766,652.120178 1052.985840,633.411316 
z"/>
<path fill="#285E39" opacity="1.000000" stroke="none" 
	d="
M1052.963745,633.845947 
	C1048.634766,652.120178 1045.229370,670.240295 1039.789185,687.727417 
	C1033.221802,708.837646 1025.436035,729.614380 1017.203186,750.144775 
	C1011.787231,763.650696 1005.178528,776.756592 998.167053,789.527222 
	C985.822632,812.010681 971.964233,833.559387 956.509644,854.096008 
	C937.978027,878.721375 917.594238,901.735962 894.789490,922.334534 
	C877.508423,937.943848 859.070068,952.402222 840.234497,966.120239 
	C824.354431,977.685791 807.702148,988.451904 790.417664,997.764038 
	C767.244751,1010.248596 743.267700,1021.222961 718.375427,1030.134399 
	C691.387024,1039.796387 663.848877,1047.276855 635.717163,1052.517578 
	C622.900208,1054.905273 609.871887,1056.142456 596.957886,1058.027710 
	C571.858643,1061.691528 546.584412,1061.418213 521.362305,1060.824585 
	C506.681122,1060.479126 491.914124,1059.189209 477.411499,1056.896362 
	C454.420380,1053.261108 431.462067,1049.113281 408.776611,1043.927979 
	C381.480499,1037.688721 355.227417,1027.989990 329.765350,1016.314331 
	C317.113983,1010.512939 304.116058,1005.173523 292.257477,998.000732 
	C270.488770,984.833801 249.037628,971.048828 228.208389,956.445618 
	C202.983871,938.760803 180.447144,917.720886 159.801575,894.951355 
	C144.485397,878.059692 130.124252,860.167542 116.720200,841.716675 
	C104.788399,825.292419 94.032883,807.893433 84.103828,790.170776 
	C75.538956,774.883057 68.458618,758.711182 61.489883,742.598083 
	C55.851173,729.560242 50.401619,716.296326 46.564854,702.655457 
	C39.996513,679.303162 34.125645,655.708923 29.171972,631.963867 
	C25.739262,615.509460 23.321539,598.694214 22.281124,581.926575 
	C20.912531,559.869934 20.212074,537.648438 21.252480,515.593506 
	C22.969200,479.201752 28.612070,443.250671 37.994148,407.964966 
	C45.104149,381.224518 54.101959,355.139069 65.588455,329.961823 
	C71.365768,317.298523 76.774368,304.333984 83.940575,292.466309 
	C97.090012,270.690125 110.812866,249.201569 125.409004,228.372574 
	C143.183563,203.007874 164.323669,180.323166 187.258194,159.617126 
	C204.542984,144.011887 222.984818,129.558350 241.821915,115.842308 
	C257.702057,104.279343 274.364990,93.541603 291.632019,84.194717 
	C314.638489,71.740982 338.510040,60.907639 363.211304,51.997871 
	C390.325134,42.217899 418.035889,34.710777 446.335266,29.462461 
	C459.154572,27.085030 472.184967,25.863550 485.097809,23.969032 
	C510.031494,20.310865 535.139648,20.584318 560.195190,21.176701 
	C575.042358,21.527729 589.976440,22.805685 604.643433,25.114902 
	C627.637146,28.735111 650.591370,32.907467 673.281128,38.079479 
	C700.585571,44.303375 726.803223,54.106438 752.287048,65.719337 
	C764.951050,71.490288 777.946594,76.837883 789.802307,84.012543 
	C811.568970,97.184929 833.008118,110.990143 853.838074,125.594994 
	C879.062744,143.281189 901.623047,164.300980 922.234497,187.098618 
	C937.744263,204.253586 952.186157,222.496490 965.807617,241.198914 
	C977.468079,257.208832 988.041138,274.138916 997.698730,291.441406 
	C1006.400574,307.031525 1013.609985,323.504761 1020.721497,339.916199 
	C1026.303345,352.797455 1031.679077,365.912964 1035.460693,379.397186 
	C1042.010742,402.753265 1047.882935,426.344666 1052.831787,450.089050 
	C1056.261475,466.544342 1058.681274,483.359100 1059.720947,500.126740 
	C1061.088379,522.183472 1061.835938,544.413818 1060.671387,566.454407 
	C1059.488403,588.846252 1055.657227,611.098145 1052.963745,633.845947 
M461.770294,610.514404 
	C460.755768,609.732849 459.741272,608.951294 458.153412,607.858154 
	C453.752747,603.607727 449.352081,599.357300 444.850830,594.449280 
	C444.161407,594.010376 443.471954,593.571472 442.243256,592.874756 
	C441.515076,592.210205 440.786896,591.545715 439.919250,590.238525 
	C439.190216,589.883179 438.461182,589.527771 437.340973,589.104797 
	C437.340973,589.104797 437.058014,588.826416 436.880493,588.135254 
	C435.383728,587.594299 433.886963,587.053406 431.786835,586.532471 
	C431.199738,586.399536 430.612610,586.266602 429.457672,585.625488 
	C427.299438,585.787354 425.141174,585.949219 422.269226,586.301514 
	C421.045105,586.374451 419.820953,586.447449 417.868469,586.205627 
	C416.544403,586.676331 415.220367,587.147034 413.186981,587.815063 
	C412.454132,587.855957 411.721313,587.896851 410.489166,587.516968 
	C408.989502,588.034668 407.489868,588.552307 405.397308,589.279358 
	C404.773346,589.325806 404.149353,589.372253 402.850128,589.144348 
	C401.858368,589.597900 400.866577,590.051514 399.260468,590.721619 
	C398.828674,590.746033 398.396912,590.770447 397.529694,590.416199 
	C396.663849,590.871643 395.798004,591.327148 394.343109,592.059631 
	C393.699951,592.138000 393.056824,592.216370 391.624512,592.087341 
	C389.401794,593.014160 387.179047,593.940979 384.446381,595.111877 
	C384.073486,595.148926 383.700592,595.185974 382.565460,595.052612 
	C380.694580,595.987244 378.823700,596.921814 376.467194,598.107727 
	C376.108734,598.161865 375.750244,598.215942 374.664307,598.138489 
	C373.077148,598.980835 371.489990,599.823181 369.392517,600.953308 
	C369.009888,601.021606 368.627258,601.089905 367.477417,601.080261 
	C362.967010,603.333435 358.456604,605.586609 353.526398,608.163330 
	C353.183746,608.235229 352.841095,608.307068 351.853363,608.211182 
	C351.206451,608.709106 350.559570,609.206970 349.364349,610.050964 
	C348.383057,610.466187 347.401794,610.881470 345.657318,611.169495 
	C343.080536,612.730774 340.503754,614.291992 337.678040,616.385681 
	C337.557434,616.540100 337.436859,616.694519 336.722168,617.119690 
	C335.931702,619.240295 335.141235,621.360962 334.305237,624.018311 
	C334.118713,624.319275 333.932190,624.620178 333.095551,625.130615 
	C332.199982,627.602661 331.304413,630.074707 330.360687,633.054382 
	C330.224640,633.363953 330.088593,633.673462 329.281555,634.221252 
	C328.616028,636.285034 327.950531,638.348816 327.271057,640.955078 
	C327.143097,641.290649 327.015167,641.626221 326.210144,642.179321 
	C325.557007,644.241577 324.903839,646.303894 324.241882,648.923218 
	C324.099548,649.262329 323.957214,649.601501 323.136841,650.154480 
	C322.586212,651.968628 322.035553,653.782776 321.454681,656.214050 
	C321.252808,656.792725 321.050903,657.371460 320.183746,658.151306 
	C319.012421,660.838074 317.621155,663.452576 316.710510,666.224976 
	C313.841217,674.960632 311.152313,683.755615 308.358795,693.152893 
	C308.177917,693.749207 307.997040,694.345459 307.301636,695.008545 
	C307.168610,695.666992 307.035614,696.325500 306.865784,697.637573 
	C306.723663,698.047913 306.581512,698.458252 305.861816,699.152222 
	C305.699707,699.935486 305.537628,700.718689 305.355530,702.134705 
	C305.171722,702.735840 304.987915,703.336975 304.290710,703.995483 
	C304.155273,704.657776 304.019806,705.320129 303.859711,706.635193 
	C303.724731,707.046753 303.589722,707.458374 302.860413,708.130981 
	C302.697021,708.919067 302.533630,709.707092 302.361542,711.131958 
	C302.162109,711.730286 301.962646,712.328674 301.086273,713.155884 
	C300.532654,715.286682 299.979034,717.417542 299.447510,720.047791 
	C299.416412,720.387878 299.304352,720.698730 298.517334,721.330872 
	C297.930023,723.540100 297.342712,725.749390 296.710693,728.619568 
	C296.553406,729.030334 296.396149,729.441162 295.708038,730.186829 
	C295.020355,732.771912 294.332672,735.357056 293.633575,738.605652 
	C293.487671,739.020630 293.341766,739.435608 292.639496,740.181885 
	C291.517395,744.253845 290.395264,748.325867 289.275848,753.049805 
	C289.123871,753.680908 288.971924,754.312073 288.252594,755.077271 
	C288.095428,756.040466 287.938263,757.003723 287.788239,758.620911 
	C287.661804,759.035400 287.535370,759.449829 286.819519,760.205688 
	C286.643250,761.274597 286.466949,762.343567 286.297150,764.062622 
	C286.144409,764.691162 285.991638,765.319702 285.265991,766.079407 
	C285.133118,767.046143 285.000214,768.012939 284.886017,769.630371 
	C284.783661,770.050537 284.681274,770.470703 283.952820,771.258240 
	C283.750519,772.663452 283.548218,774.068604 283.393860,775.986816 
	C283.305817,776.316589 283.217743,776.646362 282.594055,777.370178 
	C282.342499,778.906006 282.090942,780.441895 281.866058,782.627625 
	C281.768829,783.048462 281.671600,783.469238 280.926392,784.241333 
	C280.747467,785.664673 280.568542,787.088074 280.439575,789.139771 
	C280.318604,789.755310 280.197662,790.370911 279.499512,791.368591 
	C279.291565,793.240112 279.083588,795.111694 278.931671,797.717590 
	C278.824219,798.443909 278.716766,799.170166 277.938568,800.267212 
	C277.797913,802.379211 277.657227,804.491211 277.598480,807.392334 
	C277.439331,809.253845 277.280182,811.115356 276.609955,813.578796 
	C276.255280,824.335571 275.791901,835.090637 275.630188,845.850342 
	C275.594360,848.233826 276.623962,850.633301 277.330444,853.742554 
	C277.395905,854.962830 277.461365,856.183105 277.197754,858.128479 
	C277.665649,859.454773 278.133545,860.781006 278.796417,862.729004 
	C278.813812,863.161377 278.831207,863.593811 278.463593,864.493896 
	C279.008636,865.667297 279.553680,866.840698 280.323547,868.461060 
	C280.363556,868.789734 280.403564,869.118347 280.251709,870.191650 
	C281.141357,871.803772 282.031006,873.415894 283.236206,875.567810 
	C283.660278,876.515564 284.084320,877.463318 284.306244,879.082642 
	C284.852356,879.728455 285.398468,880.374268 286.320953,881.586365 
	C293.878876,893.433655 304.269196,901.822632 316.989075,907.754333 
	C326.122864,912.013733 333.879395,911.107056 341.171143,904.118652 
	C349.098572,896.520935 357.217072,889.120972 365.311157,881.699097 
	C382.968262,865.508484 400.528351,849.208130 418.398865,833.255920 
	C427.273499,825.334045 437.810028,821.916504 450.003113,821.984802 
	C509.947998,822.320801 569.895691,822.319885 629.841675,822.158386 
	C641.977234,822.125671 652.446045,825.732971 661.423401,833.610046 
	C672.175415,843.044312 682.795532,852.635193 693.286804,862.358887 
	C708.543030,876.499084 723.674744,890.774658 738.773254,905.083435 
	C744.813538,910.807617 751.591858,911.726685 759.026245,908.659973 
	C763.310669,906.892578 767.432434,904.730774 772.285522,902.828308 
	C772.878784,902.263672 773.471985,901.699036 774.476379,900.623291 
	C776.551208,899.018250 778.626038,897.413147 781.381104,895.827332 
	C781.868164,895.159302 782.355164,894.491211 782.979980,893.978210 
	C782.979980,893.978210 782.824951,893.840271 783.527588,893.823669 
	C784.299744,892.798462 785.071899,891.773315 786.147461,890.170349 
	C787.833923,888.135986 789.520325,886.101562 791.830322,883.889709 
	C792.142395,883.141602 792.454468,882.393494 792.799988,881.288879 
	C792.799988,881.288879 793.022949,881.008606 793.694214,880.810120 
	C794.388367,879.094788 795.082520,877.379456 795.815857,875.101196 
	C795.971130,874.762268 796.126404,874.423401 796.951050,873.874756 
	C797.517395,872.089539 798.083740,870.304321 798.656921,867.882141 
	C798.833496,867.274597 799.010071,866.667114 799.761475,865.945801 
	C799.908081,864.972534 800.054688,863.999329 800.175354,862.377380 
	C800.269775,861.956848 800.364197,861.536377 801.108521,860.750610 
	C801.242126,859.304321 801.375732,857.858032 801.455811,855.641541 
	C801.611572,854.099182 801.767395,852.556824 802.431519,850.441101 
	C802.886719,840.804565 803.472351,831.171021 803.697083,821.529114 
	C803.747559,819.363159 802.536438,817.167847 801.749512,814.189087 
	C801.672180,812.317444 801.594910,810.445740 801.839844,807.770264 
	C801.380493,805.807434 800.921204,803.844666 800.277588,801.168457 
	C800.250610,800.434387 800.223633,799.700317 800.609436,798.433411 
	C800.126099,796.938660 799.642761,795.443909 798.922302,793.240173 
	C798.808899,792.003235 798.695557,790.766235 798.860840,788.808411 
	C798.391602,787.499939 797.922424,786.191528 797.246521,784.264526 
	C797.222107,783.832397 797.197632,783.400330 797.573242,782.549255 
	C797.128052,781.675415 796.682861,780.801514 795.986145,779.259033 
	C795.889709,778.313965 795.793274,777.368896 795.937073,775.712280 
	C795.460938,774.432800 794.984802,773.153320 794.290588,771.257996 
	C794.264709,770.825378 794.238770,770.392700 794.613159,769.544495 
	C794.167664,768.669006 793.722168,767.793518 793.025574,766.263000 
	C792.896362,765.338562 792.767151,764.414124 792.858154,762.701477 
	C792.016479,760.435913 791.174805,758.170410 790.093262,755.297241 
	C790.063110,754.864685 790.032898,754.432068 790.354858,753.592407 
	C789.816772,752.344421 789.278687,751.096375 788.458435,749.249207 
	C788.400024,748.814148 788.341553,748.379089 788.672485,747.415039 
	C787.713196,744.932617 786.753906,742.450256 785.567322,739.542908 
	C785.449768,739.233154 785.425476,738.916199 785.762817,737.825256 
	C784.925110,735.857971 784.087402,733.890625 782.927856,731.369934 
	C782.830933,730.741272 782.734070,730.112610 782.859009,728.667358 
	C780.949097,723.430603 779.039185,718.193848 776.866882,712.390320 
	C776.766785,711.775879 776.666687,711.161438 776.747803,709.773987 
	C775.882019,707.833008 775.016235,705.891968 773.898132,703.380798 
	C773.790771,702.768372 773.683411,702.156006 773.743286,700.735840 
	C771.790588,694.749634 769.932800,688.729980 767.842590,682.792175 
	C766.889160,680.083801 765.476929,677.536987 763.926392,674.389099 
	C763.806824,673.773743 763.687317,673.158386 763.762329,671.750366 
	C762.350830,668.456116 760.939270,665.161926 759.251709,661.275696 
	C759.189209,660.846375 759.126648,660.417114 759.418091,659.632080 
	C758.979187,659.076538 758.540222,658.521057 757.847717,657.478516 
	C757.806580,657.117004 757.765442,656.755554 757.909241,655.625916 
	C756.977966,653.737671 756.046692,651.849426 754.863892,649.473450 
	C754.818481,649.112732 754.773071,648.752075 754.861511,647.624756 
	C753.944763,645.737305 753.028015,643.849915 751.870605,641.476013 
	C751.819458,641.119812 751.768372,640.763550 751.848999,639.676514 
	C750.990723,638.090210 750.132385,636.503906 749.004700,634.406860 
	C748.943604,634.028748 748.882568,633.650696 748.912048,632.500732 
	C747.684570,629.976135 746.457031,627.451477 744.890198,624.503540 
	C744.817444,624.153015 744.744629,623.802490 744.837830,622.714722 
	C743.947510,621.124756 743.057251,619.534790 741.821289,617.434326 
	C741.575928,616.868958 741.330566,616.303650 740.952393,615.073914 
	C738.166504,613.808533 735.380615,612.543152 731.949463,611.203125 
	C730.996033,610.698975 730.042603,610.194763 728.857605,609.069397 
	C728.074036,608.833618 727.290405,608.597839 725.977722,608.322388 
	C725.672058,608.153076 725.366394,607.983765 724.885742,607.149841 
	C722.463257,606.183899 720.040710,605.217896 717.073975,604.182678 
	C716.742798,604.031982 716.411560,603.881287 715.872559,603.081421 
	C714.172424,602.436279 712.472351,601.791077 710.371033,601.130432 
	C710.371033,601.130432 710.026001,600.925232 709.795349,600.270691 
	C705.344543,598.656433 700.893738,597.042175 695.823425,595.385010 
	C695.231995,595.206299 694.640625,595.027588 693.976257,594.335327 
	C693.321228,594.200684 692.666199,594.066040 691.360718,593.896729 
	C690.948059,593.766724 690.535339,593.636780 689.817505,592.887268 
	C688.742310,592.687256 687.667053,592.487244 685.940002,592.291870 
	C685.317383,592.116272 684.694702,591.940674 683.957642,591.194702 
	C682.980957,591.057983 682.004272,590.921204 680.378052,590.807556 
	C679.960327,590.700562 679.542664,590.593567 678.808655,589.851013 
	C677.697205,589.703369 676.585815,589.555725 674.847107,589.448608 
	C674.234924,589.319031 673.622742,589.189453 672.658264,588.495544 
	C671.109131,588.306030 669.559937,588.116455 667.275757,587.964722 
	C666.551941,587.845154 665.828125,587.725586 664.750977,586.945618 
	C663.300964,586.799438 661.850952,586.653259 659.667664,586.571167 
	C658.451904,586.416260 657.236084,586.261353 655.450989,585.601440 
	C653.293518,585.780762 651.135986,585.960083 648.405701,586.337646 
	C647.805481,586.400757 647.205261,586.463806 645.894714,586.292419 
	C644.579102,587.144409 643.263489,587.996399 641.671326,589.122070 
	C641.671326,589.122070 641.287903,589.188354 640.626526,589.128845 
	C640.070190,589.724854 639.513855,590.320923 638.639648,591.418152 
	C637.843750,591.998047 637.047913,592.577881 635.582458,593.183228 
	C635.077271,593.836243 634.572083,594.489258 633.691895,595.688904 
	C629.230530,599.858276 624.769104,604.027649 619.596924,608.199341 
	C618.812256,609.214600 618.027588,610.229858 617.000000,611.000000 
	C617.000000,611.000000 617.242310,611.245605 616.542908,611.242615 
	C615.775269,612.242676 615.007690,613.242737 614.000000,614.000000 
	C614.000000,614.000000 614.239929,614.242981 613.541077,614.243652 
	C612.771179,615.241211 612.001343,616.238831 611.000000,617.000000 
	C611.000000,617.000000 611.233826,617.234009 610.525513,617.239929 
	C609.748474,618.263367 608.971497,619.286865 607.873962,620.877075 
	C602.392883,626.347778 596.911804,631.818481 590.624817,637.129150 
	C589.405640,636.394409 588.186523,635.659668 587.473999,634.494751 
	C601.955322,619.538452 616.333740,604.480835 630.947266,589.654846 
	C645.113281,575.282959 639.890808,576.353943 661.541504,579.253662 
	C662.527466,579.385803 663.487793,579.699402 664.467529,579.889648 
	C684.389709,583.759033 703.073853,591.074524 721.129639,600.167175 
	C723.179016,601.199280 725.387390,601.915527 728.543030,603.190918 
	C726.124939,598.789246 723.753540,595.794250 722.778625,592.398376 
	C721.184937,586.847046 717.476501,583.751831 712.666687,581.489990 
	C701.992249,576.470398 691.539062,570.855591 680.544922,566.666382 
	C657.612183,557.928101 634.586792,553.832581 612.299011,569.127930 
	C610.344177,570.469421 607.220825,570.476501 604.639099,570.481323 
	C562.808533,570.559265 520.977356,570.449463 479.147400,570.629456 
	C472.803925,570.656738 467.075470,569.707214 461.540436,566.483215 
	C451.036407,560.364929 439.835266,557.915100 427.509918,559.457642 
	C404.551910,562.330933 384.140961,571.803467 364.211548,582.683472 
	C361.964417,583.910278 359.817291,585.940857 358.502167,588.127075 
	C355.626434,592.907654 353.315460,598.027832 350.443268,603.657227 
	C356.162292,600.947876 361.376007,598.484070 366.584473,596.009338 
	C385.805939,586.876831 405.882019,580.630737 427.020996,577.828491 
	C432.862640,577.054077 437.415894,578.252136 441.715240,582.807007 
	C458.288208,600.365051 475.234802,617.570374 491.818451,635.663574 
	C490.412109,636.196472 489.005768,636.729370 487.053131,636.911804 
	C482.642273,632.368469 478.231445,627.825073 473.828094,622.573608 
	C472.810211,621.787964 471.792328,621.002319 470.998260,620.004883 
	C470.998260,620.004883 470.779388,620.221985 470.782257,619.525024 
	C469.784058,618.750732 468.785828,617.976379 467.992676,617.005859 
	C467.992676,617.005859 467.795776,617.210205 467.782562,616.514160 
	C466.783936,615.743835 465.785309,614.973511 464.993622,614.004883 
	C464.993622,614.004883 464.794556,614.211060 464.781067,613.514099 
	C463.780640,612.746948 462.780212,611.979858 461.992950,611.002441 
	C461.992950,611.002441 461.786621,611.219055 461.770294,610.514404 
M870.115173,475.729553 
	C871.106079,476.076233 872.096985,476.422913 873.217468,477.455719 
	C873.310181,480.243195 873.402893,483.030670 873.293091,486.466675 
	C874.501343,490.005402 876.040955,488.728668 876.883667,486.452637 
	C877.551086,484.650238 877.193604,482.494720 877.600220,480.560974 
	C877.918884,479.045807 878.710571,477.630157 879.292053,476.170288 
	C879.785706,476.337982 880.279358,476.505646 880.772949,476.673340 
	C881.280884,480.674194 881.788818,484.675049 882.431946,489.740906 
	C886.994995,485.872223 890.495605,483.710419 893.904419,488.506805 
	C896.533936,486.220856 897.911377,476.050690 895.765320,473.864990 
	C895.191162,473.280273 893.199646,473.461670 892.272034,474.001465 
	C890.996826,474.743683 890.114868,476.161774 888.603088,477.785828 
	C885.878296,470.718475 880.826721,471.971222 875.206238,472.666962 
	C874.481995,472.705566 873.757690,472.744141 872.520996,472.390045 
	C869.352112,472.269196 869.168274,472.450256 869.800903,475.139282 
	C869.800903,475.139282 869.858948,475.143585 870.115173,475.729553 
M348.422577,440.996460 
	C320.431549,440.996429 292.440491,440.997894 264.449463,440.995361 
	C256.691101,440.994659 256.681915,440.989197 256.681305,433.425629 
	C256.677399,385.440613 256.622986,337.455444 256.762543,289.470825 
	C256.776398,284.710632 255.357468,283.026459 250.506927,283.144928 
	C238.850876,283.429504 227.175903,283.475708 215.523499,283.123535 
	C210.528458,282.972565 209.389465,284.776184 209.402344,289.430237 
	C209.538971,338.747772 209.475449,388.065826 209.524704,437.383728 
	C209.527176,439.854065 209.598007,442.490356 210.420227,444.766479 
	C215.219955,458.053345 220.116989,471.310486 225.373016,484.420593 
	C226.065704,486.148407 228.991257,488.060822 230.889679,488.068085 
	C282.206207,488.265045 333.523712,488.208710 384.840942,488.264160 
	C387.754974,488.267303 389.408264,487.287811 390.431244,484.479523 
	C393.560394,475.889069 397.044250,467.426941 400.124603,458.819885 
	C402.578552,451.963196 406.505035,444.987946 406.582458,438.029755 
	C407.138672,388.051605 406.857422,338.064301 406.920654,288.080017 
	C406.925171,284.514374 405.842896,283.139648 402.036560,283.159210 
	C374.379272,283.301300 346.720581,283.299896 319.063202,283.166870 
	C314.881042,283.146759 313.497253,284.667999 313.558624,288.728394 
	C313.727295,299.889008 313.793518,311.058289 313.520416,322.214844 
	C313.413422,326.584137 314.800446,328.077911 319.179382,327.989746 
	C330.504578,327.761902 341.841766,328.098297 353.165100,327.828186 
	C357.881836,327.715637 359.470154,329.106628 359.438934,334.021301 
	C359.233582,366.343231 359.345673,398.667114 359.326202,430.990356 
	C359.319672,441.820068 360.312561,440.959930 348.422577,440.996460 
M802.499756,440.998840 
	C777.670654,440.998138 752.840881,440.901642 728.013062,441.082367 
	C723.383728,441.116089 721.789246,439.514191 721.929199,435.002411 
	C722.161560,427.510895 721.989685,420.006866 721.989563,412.508087 
	C721.989014,371.848083 721.992737,331.188110 721.984924,290.528107 
	C721.983521,283.245636 721.961792,283.240845 715.000183,283.238312 
	C704.002014,283.234283 693.003784,283.231964 682.005615,283.239441 
	C674.804260,283.244293 674.780579,283.252594 674.779480,290.394684 
	C674.771973,338.886719 674.747437,387.378845 674.840454,435.870697 
	C674.846375,438.962006 675.342957,442.210907 676.375916,445.114471 
	C680.946289,457.960846 685.899841,470.670807 690.477417,483.514740 
	C691.727478,487.022125 693.514893,488.313629 697.328064,488.304260 
	C748.152771,488.179443 798.977905,488.197449 849.802795,488.274139 
	C853.312439,488.279419 855.254639,487.153107 856.461426,483.723633 
	C859.660217,474.633789 863.365051,465.721954 866.557373,456.630035 
	C868.803101,450.234070 872.178833,443.674835 872.241455,437.161469 
	C872.717346,387.674164 872.469299,338.180176 872.557068,288.688446 
	C872.564392,284.580994 871.137451,283.104889 867.006287,283.169861 
	C854.844666,283.361237 842.673584,283.428619 830.515625,283.144135 
	C825.794556,283.033661 824.488403,284.770142 824.536377,289.241760 
	C824.718628,306.237000 824.606201,323.235382 824.605652,340.232605 
	C824.604553,371.727448 824.536682,403.222565 824.678711,434.716766 
	C824.699524,439.335083 823.542480,441.496490 818.489868,441.086365 
	C813.523376,440.683197 808.498657,440.998688 802.499756,440.998840 
M537.078247,430.197754 
	C531.121826,414.320923 525.155945,398.447662 519.211121,382.566528 
	C507.435242,351.108307 495.621063,319.664185 483.972198,288.158997 
	C482.680878,284.666382 480.971954,283.103760 477.126740,283.163086 
	C464.797577,283.353394 452.463562,283.217834 440.131592,283.258362 
	C438.589172,283.263397 437.047760,283.570068 434.719940,283.822052 
	C438.123077,292.986572 441.226227,301.350891 444.334869,309.713196 
	C454.706665,337.613556 465.063324,365.519623 475.458069,393.411499 
	C486.724243,423.641663 498.058472,453.846558 509.262939,484.099548 
	C510.354828,487.047699 511.936951,488.288666 515.115112,488.269562 
	C532.112793,488.167328 549.111572,488.185669 566.109497,488.260101 
	C569.142090,488.273376 570.921204,487.391235 572.062317,484.277283 
	C578.867798,465.705414 585.926453,447.226501 592.843811,428.695374 
	C609.183594,384.922363 625.504211,341.142181 641.793640,297.350403 
	C643.429993,292.951416 644.799805,288.453247 646.538818,283.269165 
	C630.960815,283.269165 616.489502,283.148193 602.027222,283.454437 
	C600.564636,283.485413 598.489319,285.836395 597.827454,287.547546 
	C591.830200,303.053070 586.067627,318.649567 580.268555,334.231415 
	C568.611511,365.552948 556.988892,396.887329 545.308838,428.200287 
	C544.071045,431.518677 542.545898,434.729950 540.636047,439.204468 
	C539.157532,435.515778 538.238220,433.222137 537.078247,430.197754 
z"/>
<path fill="#FDFEFD" opacity="1.000000" stroke="none" 
	d="
M788.283142,747.944031 
	C788.341553,748.379089 788.400024,748.814148 788.501587,749.858459 
	C789.030701,751.644958 789.516724,752.822266 790.002686,753.999512 
	C790.032898,754.432068 790.063110,754.864685 790.156738,755.976990 
	C791.026123,758.934387 791.832092,761.212036 792.638000,763.489685 
	C792.767151,764.414124 792.896362,765.338562 793.069214,766.920044 
	C793.479553,768.371338 793.846252,769.165710 794.212891,769.960083 
	C794.238770,770.392700 794.264709,770.825378 794.301697,771.910156 
	C794.774109,773.849487 795.235474,775.136658 795.696838,776.423828 
	C795.793274,777.368896 795.889709,778.313965 796.029907,779.921387 
	C796.440186,781.378479 796.806702,782.173340 797.173218,782.968201 
	C797.197632,783.400330 797.222107,783.832397 797.256592,784.923828 
	C797.705200,786.898499 798.143677,788.213867 798.582153,789.529297 
	C798.695557,790.766235 798.808899,792.003235 798.947815,793.963013 
	C799.381104,796.112671 799.788879,797.539490 800.196655,798.966248 
	C800.223633,799.700317 800.250610,800.434387 800.269409,801.911987 
	C800.680054,804.628418 801.098877,806.601257 801.517639,808.574097 
	C801.594910,810.445740 801.672180,812.317444 801.701660,814.948364 
	C801.743591,827.476624 801.833374,839.245544 801.923218,851.014465 
	C801.767395,852.556824 801.611572,854.099182 801.222534,856.271362 
	C800.812439,858.306091 800.635559,859.710938 800.458618,861.115845 
	C800.364197,861.536377 800.269775,861.956848 799.967834,862.952576 
	C799.569092,864.371704 799.377930,865.215637 799.186707,866.059570 
	C799.010071,866.667114 798.833496,867.274597 798.370483,868.393921 
	C797.483215,870.631958 796.882446,872.358215 796.281738,874.084473 
	C796.126404,874.423401 795.971130,874.762268 795.504272,875.557739 
	C794.469421,877.679016 793.746155,879.343811 793.022949,881.008606 
	C793.022949,881.008606 792.799988,881.288879 792.491333,881.583069 
	C791.857300,882.607178 791.531982,883.337158 791.206665,884.067139 
	C789.520325,886.101562 787.833923,888.135986 785.680298,890.535645 
	C784.417053,891.880676 783.620972,892.860413 782.824951,893.840210 
	C782.824951,893.840271 782.979980,893.978210 782.603149,893.951111 
	C781.717896,894.552002 781.209351,895.180054 780.700806,895.808044 
	C778.626038,897.413147 776.551208,899.018250 773.954834,900.873047 
	C772.831360,901.664001 772.229370,902.205261 771.627380,902.746582 
	C767.432434,904.730774 763.310669,906.892578 759.026245,908.659973 
	C751.591858,911.726685 744.813538,910.807617 738.773254,905.083435 
	C723.674744,890.774658 708.543030,876.499084 693.286804,862.358887 
	C682.795532,852.635193 672.175415,843.044312 661.423401,833.610046 
	C652.446045,825.732971 641.977234,822.125671 629.841675,822.158386 
	C569.895691,822.319885 509.947998,822.320801 450.003113,821.984802 
	C437.810028,821.916504 427.273499,825.334045 418.398865,833.255920 
	C400.528351,849.208130 382.968262,865.508484 365.311157,881.699097 
	C357.217072,889.120972 349.098572,896.520935 341.171143,904.118652 
	C333.879395,911.107056 326.122864,912.013733 316.989075,907.754333 
	C304.269196,901.822632 293.878876,893.433655 286.141815,880.992310 
	C285.477905,879.735779 284.993134,879.073425 284.508362,878.411072 
	C284.084320,877.463318 283.660278,876.515564 283.082031,874.945190 
	C282.099731,872.697388 281.271667,871.072205 280.443573,869.447021 
	C280.403564,869.118347 280.363556,868.789734 280.315399,867.989807 
	C279.821014,866.354431 279.334808,865.190308 278.848572,864.026184 
	C278.831207,863.593811 278.813812,863.161377 278.787415,862.067871 
	C278.361206,860.072266 277.944000,858.737854 277.526794,857.403381 
	C277.461365,856.183105 277.395905,854.962830 277.384827,853.003845 
	C277.333160,839.169067 277.227112,826.072937 277.121033,812.976868 
	C277.280182,811.115356 277.439331,809.253845 277.801392,806.711670 
	C278.205994,803.986206 278.407684,801.941345 278.609344,799.896484 
	C278.716766,799.170166 278.824219,798.443909 279.093475,797.087524 
	C279.529083,794.633728 279.802917,792.810120 280.076721,790.986450 
	C280.197662,790.370911 280.318604,789.755310 280.670227,788.582642 
	C281.125397,786.647095 281.349884,785.268555 281.574402,783.890076 
	C281.671600,783.469238 281.768829,783.048462 282.066895,782.083679 
	C282.555054,780.018555 282.842377,778.497314 283.129700,776.976135 
	C283.217743,776.646362 283.305817,776.316589 283.637054,775.499207 
	C284.113129,773.638000 284.346039,772.264465 284.578918,770.890869 
	C284.681274,770.470703 284.783661,770.050537 285.125214,769.075073 
	C285.522552,767.662598 285.680725,766.805420 285.838867,765.948242 
	C285.991638,765.319702 286.144409,764.691162 286.556152,763.534668 
	C287.013092,761.959229 287.210999,760.911743 287.408936,759.864319 
	C287.535370,759.449829 287.661804,759.035400 288.038757,758.067871 
	C288.466187,756.657593 288.643066,755.800415 288.819946,754.943176 
	C288.971924,754.312073 289.123871,753.680908 289.560791,752.507263 
	C290.962433,747.926697 292.079132,743.888611 293.195862,739.850586 
	C293.341766,739.435608 293.487671,739.020630 293.916382,738.038940 
	C294.879059,734.932190 295.558960,732.392029 296.238861,729.851929 
	C296.396149,729.441162 296.553406,729.030334 297.016388,728.103333 
	C297.918518,725.384888 298.514923,723.182678 299.111328,720.980469 
	C299.304352,720.698730 299.416412,720.387878 299.718079,719.580688 
	C300.580139,717.051392 301.171661,714.989197 301.763184,712.927002 
	C301.962646,712.328674 302.162109,711.730286 302.629883,710.650879 
	C303.083740,709.403198 303.269226,708.636536 303.454712,707.869934 
	C303.589722,707.458374 303.724731,707.046753 304.120239,706.130676 
	C304.521881,705.063477 304.662994,704.500793 304.804108,703.938110 
	C304.987915,703.336975 305.171722,702.735840 305.635132,701.660767 
	C306.089600,700.414062 306.264496,699.641357 306.439392,698.868591 
	C306.581512,698.458252 306.723663,698.047913 307.146698,697.148071 
	C307.557129,696.086365 307.686646,695.514038 307.816162,694.941772 
	C307.997040,694.345459 308.177917,693.749207 308.674683,692.642822 
	C312.943359,680.738525 316.896179,669.344360 320.848999,657.950134 
	C321.050903,657.371460 321.252808,656.792725 321.762268,655.715210 
	C322.651489,653.457764 323.233185,651.699219 323.814880,649.940613 
	C323.957214,649.601501 324.099548,649.262329 324.521210,648.431763 
	C325.496094,645.947510 326.191681,643.954651 326.887238,641.961792 
	C327.015167,641.626221 327.143097,641.290649 327.566895,640.485840 
	C328.559357,638.005371 329.255951,635.994202 329.952545,633.983032 
	C330.088593,633.673462 330.224640,633.363953 330.690552,632.630615 
	C331.928833,629.778259 332.837219,627.349670 333.745667,624.921143 
	C333.932190,624.620178 334.118713,624.319275 334.592468,623.536682 
	C335.691895,620.986328 336.504089,618.917664 337.316284,616.848938 
	C337.436859,616.694519 337.557434,616.540100 338.152374,616.066284 
	C341.224640,614.263550 343.822601,612.780151 346.420532,611.296753 
	C347.401794,610.881470 348.383057,610.466187 349.950562,609.925598 
	C351.190674,609.326477 351.844574,608.852722 352.498474,608.378967 
	C352.841095,608.307068 353.183746,608.235229 354.105347,607.989868 
	C359.204437,605.596985 363.724548,603.377563 368.244659,601.158203 
	C368.627258,601.089905 369.009888,601.021606 369.995300,600.833008 
	C372.196014,599.898560 373.793884,599.084290 375.391785,598.270081 
	C375.750244,598.215942 376.108734,598.161865 377.072083,598.013367 
	C379.560516,597.020325 381.444122,596.121643 383.327698,595.223022 
	C383.700592,595.185974 384.073486,595.148926 385.077515,595.029114 
	C387.943665,594.062439 390.178650,593.178528 392.413666,592.294678 
	C393.056824,592.216370 393.699951,592.138000 394.965088,591.988831 
	C396.379730,591.543640 397.172424,591.169250 397.965149,590.794922 
	C398.396912,590.770447 398.828674,590.746033 399.894684,590.696899 
	C401.527740,590.254333 402.526550,589.836487 403.525391,589.418640 
	C404.149353,589.372253 404.773346,589.325806 405.960815,589.286743 
	C408.012360,588.842041 409.500427,588.389893 410.988464,587.937744 
	C411.721313,587.896851 412.454132,587.855957 413.892700,587.812500 
	C415.931213,587.380005 417.264038,586.950195 418.596832,586.520386 
	C419.820953,586.447449 421.045105,586.374451 422.956635,586.339050 
	C425.771210,586.295593 427.898346,586.214600 430.025513,586.133606 
	C430.612610,586.266602 431.199738,586.399536 432.278503,586.795654 
	C434.199432,587.648071 435.628723,588.237244 437.058014,588.826416 
	C437.058014,588.826416 437.340973,589.104797 437.660767,589.420410 
	C438.673279,590.117798 439.365997,590.499451 440.058716,590.881165 
	C440.786896,591.545715 441.515076,592.210205 442.592529,593.307922 
	C443.611664,594.196350 444.281525,594.651611 444.951416,595.106873 
	C449.352081,599.357300 453.752747,603.607727 458.509155,608.331421 
	C459.838837,609.609497 460.812714,610.414246 461.786621,611.219055 
	C461.786621,611.219055 461.992950,611.002441 461.951111,611.420654 
	C462.871002,612.629578 463.832794,613.420288 464.794556,614.211060 
	C464.794556,614.211060 464.993622,614.004883 464.950989,614.418457 
	C465.870850,615.624756 466.833313,616.417480 467.795776,617.210205 
	C467.795776,617.210205 467.992676,617.005859 467.949402,617.418335 
	C468.863861,618.627869 469.821625,619.424927 470.779388,620.221985 
	C470.779388,620.221985 470.998260,620.004883 470.949402,620.428589 
	C471.873871,621.662048 472.847229,622.471924 473.820587,623.281738 
	C478.231445,627.825073 482.642273,632.368469 487.531006,637.446960 
	C489.405945,638.347229 490.802338,639.028381 492.200043,639.031067 
	C523.684509,639.091614 555.169128,639.103760 586.653381,639.001770 
	C588.247620,638.996582 589.838379,637.885376 591.430725,637.289185 
	C596.911804,631.818481 602.392883,626.347778 608.352173,620.524170 
	C609.631592,619.192200 610.432739,618.213135 611.233887,617.234009 
	C611.233826,617.234009 611.000000,617.000000 611.430054,617.059570 
	C612.653381,616.160400 613.446655,615.201721 614.239929,614.242981 
	C614.239929,614.242981 614.000000,614.000000 614.434570,614.063049 
	C615.660156,613.165955 616.451233,612.205750 617.242310,611.245605 
	C617.242310,611.245605 617.000000,611.000000 617.439575,611.059448 
	C618.688660,610.144897 619.498169,609.170959 620.307678,608.197021 
	C624.769104,604.027649 629.230530,599.858276 634.190186,595.364807 
	C635.209595,594.413086 635.730835,593.785400 636.252014,593.157776 
	C637.047913,592.577881 637.843750,591.998047 639.107544,591.145142 
	C640.146301,590.310913 640.717102,589.749634 641.287903,589.188354 
	C641.287903,589.188354 641.671326,589.122070 642.143677,588.954956 
	C643.945679,588.034241 645.275391,587.280579 646.605042,586.526917 
	C647.205261,586.463806 647.805481,586.400757 649.025269,586.365112 
	C651.770020,586.297241 653.895142,586.201904 656.020325,586.106506 
	C657.236084,586.261353 658.451904,586.416260 660.283142,586.796753 
	C662.300537,587.216919 663.702393,587.411499 665.104309,587.606018 
	C665.828125,587.725586 666.551941,587.845154 667.866211,588.153076 
	C669.974670,588.580933 671.492615,588.820435 673.010559,589.059937 
	C673.622742,589.189453 674.234924,589.319031 675.375366,589.686401 
	C676.977417,590.111755 678.051208,590.299194 679.124939,590.486572 
	C679.542664,590.593567 679.960327,590.700562 680.958618,591.011230 
	C682.383545,591.398254 683.227783,591.581665 684.072083,591.765076 
	C684.694702,591.940674 685.317383,592.116272 686.470642,592.548584 
	C688.041748,593.039124 689.082214,593.273010 690.122681,593.506836 
	C690.535339,593.636780 690.948059,593.766724 691.849121,594.176147 
	C692.908020,594.586731 693.478638,594.717834 694.049194,594.848877 
	C694.640625,595.027588 695.231995,595.206299 696.320923,595.707520 
	C701.221008,597.661804 705.623474,599.293518 710.026001,600.925232 
	C710.026001,600.925232 710.371033,601.130432 710.736694,601.429565 
	C712.761658,602.395935 714.421021,603.063293 716.080383,603.730591 
	C716.411560,603.881287 716.742798,604.031982 717.504395,604.525391 
	C720.310059,605.850220 722.685425,606.832336 725.060730,607.814392 
	C725.366394,607.983765 725.672058,608.153076 726.396484,608.616760 
	C727.573242,609.170959 728.331238,609.430725 729.089172,609.690552 
	C730.042603,610.194763 730.996033,610.698975 732.453796,611.530640 
	C735.667175,613.151550 738.376160,614.444885 741.085144,615.738281 
	C741.330566,616.303650 741.575928,616.868958 741.982544,618.038330 
	C742.986450,620.245605 743.829102,621.848755 744.671814,623.451965 
	C744.744629,623.802490 744.817444,624.153015 745.060303,625.081909 
	C746.427429,628.197693 747.624451,630.735107 748.821472,633.272583 
	C748.882568,633.650696 748.943604,634.028748 749.107788,635.011108 
	C750.046265,637.212708 750.881775,638.809998 751.717224,640.407349 
	C751.768372,640.763550 751.819458,641.119812 751.950562,642.084656 
	C752.929565,644.592651 753.828613,646.492004 754.727661,648.391357 
	C754.773071,648.752075 754.818481,649.112732 754.956055,650.081055 
	C755.940247,652.590454 756.832336,654.492249 757.724365,656.394043 
	C757.765442,656.755554 757.806580,657.117004 757.925293,658.024414 
	C758.356567,659.042786 758.710388,659.515320 759.064087,659.987793 
	C759.126648,660.417114 759.189209,660.846375 759.343140,661.937927 
	C760.812317,665.914429 762.190002,669.228760 763.567749,672.543030 
	C763.687317,673.158386 763.806824,673.773743 764.083679,675.035950 
	C767.352661,684.303040 770.464355,692.923340 773.575989,701.543579 
	C773.683411,702.156006 773.790771,702.768372 773.974243,704.033508 
	C774.889038,706.639832 775.727844,708.593384 776.566650,710.546997 
	C776.666687,711.161438 776.766785,711.775879 776.963135,713.066956 
	C778.918701,718.990356 780.777954,724.237183 782.637207,729.483948 
	C782.734070,730.112610 782.830933,730.741272 783.050659,732.011597 
	C783.947083,734.632874 784.720764,736.612488 785.494507,738.592102 
	C785.425476,738.916199 785.449768,739.233154 785.575806,740.044373 
	C786.483948,743.011902 787.383545,745.477966 788.283142,747.944031 
M645.844116,748.343323 
	C645.796509,747.915588 645.748901,747.487915 646.187439,746.767395 
	C646.044556,746.161438 645.901672,745.555542 645.845520,744.220886 
	C645.864014,743.487305 645.882507,742.753723 646.282776,741.716003 
	C645.989868,741.108887 645.696960,740.501709 645.263916,739.067810 
	C643.094116,722.173706 631.238586,709.714417 614.283447,706.351013 
	C598.015686,703.124023 585.318604,708.845764 575.507446,721.729919 
	C574.830444,722.618896 575.109314,724.235779 574.642212,725.872070 
	C574.076111,726.412598 573.510010,726.953125 572.131409,727.497620 
	C566.744324,737.360291 564.596252,747.769104 568.912170,758.423279 
	C576.522461,777.210205 594.270264,786.937134 614.294312,783.750244 
	C626.930481,781.739258 636.200989,775.216248 641.330505,762.588501 
	C641.609314,762.356812 641.888062,762.125183 642.657043,761.389160 
	C643.585510,757.962708 644.513977,754.536194 645.903564,750.936035 
	C645.908997,750.285645 645.914368,749.635254 645.844116,748.343323 
M413.726746,703.521057 
	C414.121277,703.396973 414.515778,703.272888 415.472168,703.327881 
	C416.168884,703.009705 416.865570,702.691467 418.298523,702.348206 
	C421.119019,701.001099 424.185272,700.007629 426.718567,698.247253 
	C439.533875,689.341492 443.595917,676.827576 443.318024,661.501648 
	C442.928955,640.042358 418.660248,618.359619 391.041077,627.967163 
	C373.036377,634.230286 360.101654,656.106873 366.115784,678.294800 
	C366.672485,679.185913 367.229218,680.076965 367.990417,681.664856 
	C376.650055,699.073547 393.137787,707.048462 413.726746,703.521057 
M466.199402,711.680054 
	C458.964478,712.988220 458.951385,712.994629 458.809998,720.265930 
	C458.767883,722.431580 458.853455,724.601562 458.753143,726.763672 
	C458.547852,731.189087 459.892487,737.328796 457.549408,739.559998 
	C455.107330,741.885376 449.075256,740.591919 444.611389,740.614868 
	C430.085907,740.689575 429.562042,741.366516 430.833221,756.195557 
	C431.181152,760.254211 433.001007,761.816345 436.779144,761.831787 
	C443.276703,761.858337 449.783234,762.148438 456.268158,761.886414 
	C460.133911,761.730347 461.206177,763.157471 460.994934,766.784363 
	C460.743469,771.101257 460.925201,775.445923 460.984833,779.777710 
	C461.117828,789.439941 461.534241,789.836731 471.167725,789.897400 
	C480.561035,789.956604 480.850586,789.686340 480.924652,780.005432 
	C480.969940,774.085876 480.932983,768.165649 480.932983,761.967407 
	C486.280273,761.967407 490.764496,761.984985 495.248535,761.964111 
	C509.135193,761.899414 509.135132,761.893738 508.947235,748.235352 
	C508.841614,740.561340 508.312958,739.940613 500.673920,739.800171 
	C494.261353,739.682251 487.844910,739.775940 480.963501,739.775940 
	C480.963501,733.830383 480.963501,728.861938 480.963501,723.893494 
	C480.963501,711.088135 480.963470,711.087402 468.034210,711.443909 
	C467.702576,711.453064 467.372467,711.519775 466.199402,711.680054 
M650.798645,653.683777 
	C645.080078,646.334839 630.510132,648.264709 626.049072,653.531250 
	C618.840027,662.041992 618.757812,672.110596 626.502319,679.332153 
	C633.411438,685.774658 643.460144,685.904419 650.462646,679.641418 
	C657.860535,673.024780 658.195923,662.945251 650.798645,653.683777 
M722.209656,653.269897 
	C717.779053,648.867493 712.320740,648.132019 706.493347,649.020691 
	C699.960144,650.017029 695.410339,653.938049 693.513062,660.004944 
	C691.378052,666.831848 692.061951,673.572754 697.768921,678.853760 
	C702.695129,683.412354 708.271240,685.812561 715.059326,683.500488 
	C728.035278,679.080811 732.419373,662.711060 722.209656,653.269897 
M688.365845,690.235901 
	C682.206360,683.666870 675.865784,681.752991 668.685913,684.605774 
	C661.735535,687.367188 657.698364,692.690796 656.899719,700.049988 
	C656.158264,706.881470 658.807922,712.499634 664.681763,716.250916 
	C671.021912,720.300171 677.521301,720.369507 683.964233,716.367065 
	C692.381226,711.138489 694.364807,700.609863 688.365845,690.235901 
M686.312378,618.125854 
	C684.273071,617.029053 682.347168,615.545776 680.173218,614.907776 
	C673.604248,612.979736 667.303711,613.227905 662.069763,618.455383 
	C656.853394,623.665222 655.478516,629.939209 657.549805,636.835266 
	C659.654053,643.841125 666.283386,648.794128 673.504761,649.280151 
	C680.476196,649.749329 686.534973,646.236511 689.761292,639.854736 
	C693.479553,632.499756 692.453857,624.979797 686.312378,618.125854 
M585.084961,655.240356 
	C582.864746,654.682068 580.651672,653.683289 578.422974,653.647278 
	C571.464355,653.534790 566.601685,658.826355 566.863098,665.816528 
	C567.160278,673.762512 571.804199,677.652771 580.502563,677.242615 
	C586.452026,676.962036 591.812561,671.148804 590.714417,665.005188 
	C590.121033,661.685547 587.457886,658.735840 585.084961,655.240356 
M503.035187,677.115845 
	C509.415680,675.411560 512.333984,671.480408 512.154236,664.832153 
	C512.009338,659.473511 508.599274,655.072998 503.638397,653.842834 
	C497.626373,652.352051 492.343018,654.833252 489.573212,660.448486 
	C485.150970,669.413574 491.145599,677.371704 503.035187,677.115845 
z"/>
<path fill="#FAFBFA" opacity="1.000000" stroke="none" 
	d="
M348.909851,440.996460 
	C360.312561,440.959930 359.319672,441.820068 359.326202,430.990356 
	C359.345673,398.667114 359.233582,366.343231 359.438934,334.021301 
	C359.470154,329.106628 357.881836,327.715637 353.165100,327.828186 
	C341.841766,328.098297 330.504578,327.761902 319.179382,327.989746 
	C314.800446,328.077911 313.413422,326.584137 313.520416,322.214844 
	C313.793518,311.058289 313.727295,299.889008 313.558624,288.728394 
	C313.497253,284.667999 314.881042,283.146759 319.063202,283.166870 
	C346.720581,283.299896 374.379272,283.301300 402.036560,283.159210 
	C405.842896,283.139648 406.925171,284.514374 406.920654,288.080017 
	C406.857422,338.064301 407.138672,388.051605 406.582458,438.029755 
	C406.505035,444.987946 402.578552,451.963196 400.124603,458.819885 
	C397.044250,467.426941 393.560394,475.889069 390.431244,484.479523 
	C389.408264,487.287811 387.754974,488.267303 384.840942,488.264160 
	C333.523712,488.208710 282.206207,488.265045 230.889679,488.068085 
	C228.991257,488.060822 226.065704,486.148407 225.373016,484.420593 
	C220.116989,471.310486 215.219955,458.053345 210.420227,444.766479 
	C209.598007,442.490356 209.527176,439.854065 209.524704,437.383728 
	C209.475449,388.065826 209.538971,338.747772 209.402344,289.430237 
	C209.389465,284.776184 210.528458,282.972565 215.523499,283.123535 
	C227.175903,283.475708 238.850876,283.429504 250.506927,283.144928 
	C255.357468,283.026459 256.776398,284.710632 256.762543,289.470825 
	C256.622986,337.455444 256.677399,385.440613 256.681305,433.425629 
	C256.681915,440.989197 256.691101,440.994659 264.449463,440.995361 
	C292.440491,440.997894 320.431549,440.996429 348.909851,440.996460 
z"/>
<path fill="#FAFBFB" opacity="1.000000" stroke="none" 
	d="
M802.999634,440.998840 
	C808.498657,440.998688 813.523376,440.683197 818.489868,441.086365 
	C823.542480,441.496490 824.699524,439.335083 824.678711,434.716766 
	C824.536682,403.222565 824.604553,371.727448 824.605652,340.232605 
	C824.606201,323.235382 824.718628,306.237000 824.536377,289.241760 
	C824.488403,284.770142 825.794556,283.033661 830.515625,283.144135 
	C842.673584,283.428619 854.844666,283.361237 867.006287,283.169861 
	C871.137451,283.104889 872.564392,284.580994 872.557068,288.688446 
	C872.469299,338.180176 872.717346,387.674164 872.241455,437.161469 
	C872.178833,443.674835 868.803101,450.234070 866.557373,456.630035 
	C863.365051,465.721954 859.660217,474.633789 856.461426,483.723633 
	C855.254639,487.153107 853.312439,488.279419 849.802795,488.274139 
	C798.977905,488.197449 748.152771,488.179443 697.328064,488.304260 
	C693.514893,488.313629 691.727478,487.022125 690.477417,483.514740 
	C685.899841,470.670807 680.946289,457.960846 676.375916,445.114471 
	C675.342957,442.210907 674.846375,438.962006 674.840454,435.870697 
	C674.747437,387.378845 674.771973,338.886719 674.779480,290.394684 
	C674.780579,283.252594 674.804260,283.244293 682.005615,283.239441 
	C693.003784,283.231964 704.002014,283.234283 715.000183,283.238312 
	C721.961792,283.240845 721.983521,283.245636 721.984924,290.528107 
	C721.992737,331.188110 721.989014,371.848083 721.989563,412.508087 
	C721.989685,420.006866 722.161560,427.510895 721.929199,435.002411 
	C721.789246,439.514191 723.383728,441.116089 728.013062,441.082367 
	C752.840881,440.901642 777.670654,440.998138 802.999634,440.998840 
z"/>
<path fill="#FAFBFA" opacity="1.000000" stroke="none" 
	d="
M537.198547,430.563110 
	C538.238220,433.222137 539.157532,435.515778 540.636047,439.204468 
	C542.545898,434.729950 544.071045,431.518677 545.308838,428.200287 
	C556.988892,396.887329 568.611511,365.552948 580.268555,334.231415 
	C586.067627,318.649567 591.830200,303.053070 597.827454,287.547546 
	C598.489319,285.836395 600.564636,283.485413 602.027222,283.454437 
	C616.489502,283.148193 630.960815,283.269165 646.538818,283.269165 
	C644.799805,288.453247 643.429993,292.951416 641.793640,297.350403 
	C625.504211,341.142181 609.183594,384.922363 592.843811,428.695374 
	C585.926453,447.226501 578.867798,465.705414 572.062317,484.277283 
	C570.921204,487.391235 569.142090,488.273376 566.109497,488.260101 
	C549.111572,488.185669 532.112793,488.167328 515.115112,488.269562 
	C511.936951,488.288666 510.354828,487.047699 509.262939,484.099548 
	C498.058472,453.846558 486.724243,423.641663 475.458069,393.411499 
	C465.063324,365.519623 454.706665,337.613556 444.334869,309.713196 
	C441.226227,301.350891 438.123077,292.986572 434.719940,283.822052 
	C437.047760,283.570068 438.589172,283.263397 440.131592,283.258362 
	C452.463562,283.217834 464.797577,283.353394 477.126740,283.163086 
	C480.971954,283.103760 482.680878,284.666382 483.972198,288.158997 
	C495.621063,319.664185 507.435242,351.108307 519.211121,382.566528 
	C525.155945,398.447662 531.121826,414.320923 537.198547,430.563110 
z"/>
<path fill="#F9FBFA" opacity="1.000000" stroke="none" 
	d="
M492.042145,634.907227 
	C475.234802,617.570374 458.288208,600.365051 441.715240,582.807007 
	C437.415894,578.252136 432.862640,577.054077 427.020996,577.828491 
	C405.882019,580.630737 385.805939,586.876831 366.584473,596.009338 
	C361.376007,598.484070 356.162292,600.947876 350.443268,603.657227 
	C353.315460,598.027832 355.626434,592.907654 358.502167,588.127075 
	C359.817291,585.940857 361.964417,583.910278 364.211548,582.683472 
	C384.140961,571.803467 404.551910,562.330933 427.509918,559.457642 
	C439.835266,557.915100 451.036407,560.364929 461.540436,566.483215 
	C467.075470,569.707214 472.803925,570.656738 479.147400,570.629456 
	C520.977356,570.449463 562.808533,570.559265 604.639099,570.481323 
	C607.220825,570.476501 610.344177,570.469421 612.299011,569.127930 
	C634.586792,553.832581 657.612183,557.928101 680.544922,566.666382 
	C691.539062,570.855591 701.992249,576.470398 712.666687,581.489990 
	C717.476501,583.751831 721.184937,586.847046 722.778625,592.398376 
	C723.753540,595.794250 726.124939,598.789246 728.543030,603.190918 
	C725.387390,601.915527 723.179016,601.199280 721.129639,600.167175 
	C703.073853,591.074524 684.389709,583.759033 664.467529,579.889648 
	C663.487793,579.699402 662.527466,579.385803 661.541504,579.253662 
	C639.890808,576.353943 645.113281,575.282959 630.947266,589.654846 
	C616.333740,604.480835 601.955322,619.538452 586.756653,634.656921 
	C554.706909,634.848450 523.374512,634.877808 492.042145,634.907227 
M568.034180,605.287537 
	C567.908142,588.327026 554.630493,575.856750 537.712524,576.809631 
	C519.499023,577.835449 506.498505,594.014465 510.996796,610.057129 
	C514.672668,623.166748 526.773010,631.538269 540.882141,630.733093 
	C555.338501,629.908081 565.617554,620.575439 568.034180,605.287537 
z"/>
<path fill="#5A8367" opacity="1.000000" stroke="none" 
	d="
M491.930298,635.285400 
	C523.374512,634.877808 554.706909,634.848450 586.503296,634.872009 
	C588.186523,635.659668 589.405640,636.394409 591.027771,637.209167 
	C589.838379,637.885376 588.247620,638.996582 586.653381,639.001770 
	C555.169128,639.103760 523.684509,639.091614 492.200043,639.031067 
	C490.802338,639.028381 489.405945,638.347229 487.804169,637.622192 
	C489.005768,636.729370 490.412109,636.196472 491.930298,635.285400 
z"/>
<path fill="#87A591" opacity="1.000000" stroke="none" 
	d="
M875.928223,472.748749 
	C880.826721,471.971222 885.878296,470.718475 888.603088,477.785828 
	C890.114868,476.161774 890.996826,474.743683 892.272034,474.001465 
	C893.199646,473.461670 895.191162,473.280273 895.765320,473.864990 
	C897.911377,476.050690 896.533936,486.220856 893.904419,488.506805 
	C890.495605,483.710419 886.994995,485.872223 882.431946,489.740906 
	C881.788818,484.675049 881.280884,480.674194 880.772949,476.673340 
	C880.279358,476.505646 879.785706,476.337982 879.292053,476.170288 
	C878.710571,477.630157 877.918884,479.045807 877.600220,480.560974 
	C877.193604,482.494720 877.551086,484.650238 876.883667,486.452637 
	C876.040955,488.728668 874.501343,490.005402 873.694214,485.973877 
	C875.092163,481.681976 876.089111,477.882904 877.169861,473.764465 
	C877.157227,473.754120 876.542725,473.251434 875.928223,472.748749 
M884.214233,480.006409 
	C884.953735,480.633789 885.618286,481.397095 886.450806,481.855591 
	C887.598267,482.487579 889.190674,483.610687 890.027161,483.241669 
	C891.841614,482.441345 893.297363,480.827850 894.899780,479.546844 
	C894.728027,478.932343 894.556335,478.317841 894.384583,477.703369 
	C888.038330,484.088562 886.902344,476.853149 884.114685,473.935516 
	C883.768250,474.190521 883.421814,474.445557 883.075317,474.700562 
	C883.251953,476.326599 883.428589,477.952637 884.214233,480.006409 
z"/>
<path fill="#5A8367" opacity="1.000000" stroke="none" 
	d="
M276.865479,813.277832 
	C277.227112,826.072937 277.333160,839.169067 277.301086,852.645264 
	C276.623962,850.633301 275.594360,848.233826 275.630188,845.850342 
	C275.791901,835.090637 276.255280,824.335571 276.865479,813.277832 
z"/>
<path fill="#5A8367" opacity="1.000000" stroke="none" 
	d="
M802.177368,850.727783 
	C801.833374,839.245544 801.743591,827.476624 801.779907,815.346863 
	C802.536438,817.167847 803.747559,819.363159 803.697083,821.529114 
	C803.472351,831.171021 802.886719,840.804565 802.177368,850.727783 
z"/>
<path fill="#5A8367" opacity="1.000000" stroke="none" 
	d="
M320.516357,658.050720 
	C316.896179,669.344360 312.943359,680.738525 308.692047,692.330200 
	C311.152313,683.755615 313.841217,674.960632 316.710510,666.224976 
	C317.621155,663.452576 319.012421,660.838074 320.516357,658.050720 
z"/>
<path fill="#5A8367" opacity="1.000000" stroke="none" 
	d="
M773.659668,701.139709 
	C770.464355,692.923340 767.352661,684.303040 764.256897,675.299805 
	C765.476929,677.536987 766.889160,680.083801 767.842590,682.792175 
	C769.932800,688.729980 771.790588,694.749634 773.659668,701.139709 
z"/>
<path fill="#AEC2B4" opacity="1.000000" stroke="none" 
	d="
M875.567261,472.707855 
	C876.542725,473.251434 877.157227,473.754120 877.169861,473.764465 
	C876.089111,477.882904 875.092163,481.681976 873.795410,485.649597 
	C873.402893,483.030670 873.310181,480.243195 873.052002,476.793579 
	C871.877319,475.802155 870.868103,475.472870 869.858948,475.143585 
	C869.858948,475.143585 869.800903,475.139282 870.053223,474.891418 
	C871.214905,474.023254 872.124146,473.402985 873.033447,472.782715 
	C873.757690,472.744141 874.481995,472.705566 875.567261,472.707855 
z"/>
<path fill="#5A8367" opacity="1.000000" stroke="none" 
	d="
M782.748108,729.075684 
	C780.777954,724.237183 778.918701,718.990356 777.094360,713.350342 
	C779.039185,718.193848 780.949097,723.430603 782.748108,729.075684 
z"/>
<path fill="#5A8367" opacity="1.000000" stroke="none" 
	d="
M367.861023,601.119263 
	C363.724548,603.377563 359.204437,605.596985 354.315247,607.828003 
	C358.456604,605.586609 362.967010,603.333435 367.861023,601.119263 
z"/>
<path fill="#5A8367" opacity="1.000000" stroke="none" 
	d="
M709.910645,600.597961 
	C705.623474,599.293518 701.221008,597.661804 696.630737,595.729004 
	C700.893738,597.042175 705.344543,598.656433 709.910645,600.597961 
z"/>
<path fill="#5A8367" opacity="1.000000" stroke="none" 
	d="
M292.917664,740.016235 
	C292.079132,743.888611 290.962433,747.926697 289.559418,752.181274 
	C290.395264,748.325867 291.517395,744.253845 292.917664,740.016235 
z"/>
<path fill="#5A8367" opacity="1.000000" stroke="none" 
	d="
M763.665039,672.146729 
	C762.190002,669.228760 760.812317,665.914429 759.481201,662.233887 
	C760.939270,665.161926 762.350830,668.456116 763.665039,672.146729 
z"/>
<path fill="#5A8367" opacity="1.000000" stroke="none" 
	d="
M346.038940,611.233154 
	C343.822601,612.780151 341.224640,614.263550 338.276855,615.800110 
	C340.503754,614.291992 343.080536,612.730774 346.038940,611.233154 
z"/>
<path fill="#5A8367" opacity="1.000000" stroke="none" 
	d="
M741.018799,615.406067 
	C738.376160,614.444885 735.667175,613.151550 732.776428,611.567993 
	C735.380615,612.543152 738.166504,613.808533 741.018799,615.406067 
z"/>
<path fill="#5A8367" opacity="1.000000" stroke="none" 
	d="
M788.477783,747.679565 
	C787.383545,745.477966 786.483948,743.011902 785.689453,740.256836 
	C786.753906,742.450256 787.713196,744.932617 788.477783,747.679565 
z"/>
<path fill="#5A8367" opacity="1.000000" stroke="none" 
	d="
M748.866760,632.886658 
	C747.624451,630.735107 746.427429,628.197693 745.229980,625.293579 
	C746.457031,627.451477 747.684570,629.976135 748.866760,632.886658 
z"/>
<path fill="#5A8367" opacity="1.000000" stroke="none" 
	d="
M295.973450,730.019409 
	C295.558960,732.392029 294.879059,734.932190 293.922089,737.707214 
	C294.332672,735.357056 295.020355,732.771912 295.973450,730.019409 
z"/>
<path fill="#5A8367" opacity="1.000000" stroke="none" 
	d="
M298.814331,721.155640 
	C298.514923,723.182678 297.918518,725.384888 297.038727,727.772827 
	C297.342712,725.749390 297.930023,723.540100 298.814331,721.155640 
z"/>
<path fill="#5A8367" opacity="1.000000" stroke="none" 
	d="
M333.420593,625.025879 
	C332.837219,627.349670 331.928833,629.778259 330.714630,632.376831 
	C331.304413,630.074707 332.199982,627.602661 333.420593,625.025879 
z"/>
<path fill="#5A8367" opacity="1.000000" stroke="none" 
	d="
M655.735657,585.854004 
	C653.895142,586.201904 651.770020,586.297241 649.311646,586.265991 
	C651.135986,585.960083 653.293518,585.780762 655.735657,585.854004 
z"/>
<path fill="#5A8367" opacity="1.000000" stroke="none" 
	d="
M429.741577,585.879517 
	C427.898346,586.214600 425.771210,586.295593 423.313477,586.243774 
	C425.141174,585.949219 427.299438,585.787354 429.741577,585.879517 
z"/>
<path fill="#5A8367" opacity="1.000000" stroke="none" 
	d="
M279.788116,791.177490 
	C279.802917,792.810120 279.529083,794.633728 279.065460,796.720337 
	C279.083588,795.111694 279.291565,793.240112 279.788116,791.177490 
z"/>
<path fill="#5A8367" opacity="1.000000" stroke="none" 
	d="
M724.973267,607.482117 
	C722.685425,606.832336 720.310059,605.850220 717.776489,604.560059 
	C720.040710,605.217896 722.463257,606.183899 724.973267,607.482117 
z"/>
<path fill="#5A8367" opacity="1.000000" stroke="none" 
	d="
M392.019104,592.191040 
	C390.178650,593.178528 387.943665,594.062439 385.332489,594.907043 
	C387.179047,593.940979 389.401794,593.014160 392.019104,592.191040 
z"/>
<path fill="#5A8367" opacity="1.000000" stroke="none" 
	d="
M792.748047,763.095581 
	C791.832092,761.212036 791.026123,758.934387 790.276611,756.280762 
	C791.174805,758.170410 792.016479,760.435913 792.748047,763.095581 
z"/>
<path fill="#5A8367" opacity="1.000000" stroke="none" 
	d="
M801.678711,808.172180 
	C801.098877,806.601257 800.680054,804.628418 800.361572,802.268677 
	C800.921204,803.844666 801.380493,805.807434 801.678711,808.172180 
z"/>
<path fill="#5A8367" opacity="1.000000" stroke="none" 
	d="
M337.019226,616.984314 
	C336.504089,618.917664 335.691895,620.986328 334.615234,623.268311 
	C335.141235,621.360962 335.931702,619.240295 337.019226,616.984314 
z"/>
<path fill="#5A8367" opacity="1.000000" stroke="none" 
	d="
M278.273956,800.081848 
	C278.407684,801.941345 278.205994,803.986206 277.760437,806.317139 
	C277.657227,804.491211 277.797913,802.379211 278.273956,800.081848 
z"/>
<path fill="#5A8367" opacity="1.000000" stroke="none" 
	d="
M754.794556,648.008057 
	C753.828613,646.492004 752.929565,644.592651 752.070862,642.327881 
	C753.028015,643.849915 753.944763,645.737305 754.794556,648.008057 
z"/>
<path fill="#5A8367" opacity="1.000000" stroke="none" 
	d="
M326.548706,642.070557 
	C326.191681,643.954651 325.496094,645.947510 324.525635,648.153259 
	C324.903839,646.303894 325.557007,644.241577 326.548706,642.070557 
z"/>
<path fill="#5A8367" opacity="1.000000" stroke="none" 
	d="
M757.816772,656.010010 
	C756.832336,654.492249 755.940247,652.590454 755.081787,650.324951 
	C756.046692,651.849426 756.977966,653.737671 757.816772,656.010010 
z"/>
<path fill="#5A8367" opacity="1.000000" stroke="none" 
	d="
M776.657227,710.160522 
	C775.727844,708.593384 774.889038,706.639832 774.100342,704.318604 
	C775.016235,705.891968 775.882019,707.833008 776.657227,710.160522 
z"/>
<path fill="#5A8367" opacity="1.000000" stroke="none" 
	d="
M282.861877,777.173157 
	C282.842377,778.497314 282.555054,780.018555 282.053558,781.758728 
	C282.090942,780.441895 282.342499,778.906006 282.861877,777.173157 
z"/>
<path fill="#5A8367" opacity="1.000000" stroke="none" 
	d="
M301.424713,713.041443 
	C301.171661,714.989197 300.580139,717.051392 299.707001,719.330933 
	C299.979034,717.417542 300.532654,715.286682 301.424713,713.041443 
z"/>
<path fill="#5A8367" opacity="1.000000" stroke="none" 
	d="
M785.628662,738.208679 
	C784.720764,736.612488 783.947083,734.632874 783.211548,732.288330 
	C784.087402,733.890625 784.925110,735.857971 785.628662,738.208679 
z"/>
<path fill="#5A8367" opacity="1.000000" stroke="none" 
	d="
M410.738831,587.727356 
	C409.500427,588.389893 408.012360,588.842041 406.257263,589.182129 
	C407.489868,588.552307 408.989502,588.034668 410.738831,587.727356 
z"/>
<path fill="#5A8367" opacity="1.000000" stroke="none" 
	d="
M672.834412,588.777710 
	C671.492615,588.820435 669.974670,588.580933 668.233765,588.134155 
	C669.559937,588.116455 671.109131,588.306030 672.834412,588.777710 
z"/>
<path fill="#5A8367" opacity="1.000000" stroke="none" 
	d="
M329.617065,634.102173 
	C329.255951,635.994202 328.559357,638.005371 327.573883,640.214600 
	C327.950531,638.348816 328.616028,636.285034 329.617065,634.102173 
z"/>
<path fill="#5A8367" opacity="1.000000" stroke="none" 
	d="
M382.946594,595.137817 
	C381.444122,596.121643 379.560516,597.020325 377.314880,597.887695 
	C378.823700,596.921814 380.694580,595.987244 382.946594,595.137817 
z"/>
<path fill="#5A8367" opacity="1.000000" stroke="none" 
	d="
M800.403076,798.699829 
	C799.788879,797.539490 799.381104,796.112671 799.066406,794.317505 
	C799.642761,795.443909 800.126099,796.938660 800.403076,798.699829 
z"/>
<path fill="#5A8367" opacity="1.000000" stroke="none" 
	d="
M375.028046,598.204285 
	C373.793884,599.084290 372.196014,599.898560 370.250458,600.689087 
	C371.489990,599.823181 373.077148,598.980835 375.028046,598.204285 
z"/>
<path fill="#87A591" opacity="1.000000" stroke="none" 
	d="
M872.777222,472.586365 
	C872.124146,473.402985 871.214905,474.023254 870.045959,474.863251 
	C869.168274,472.450256 869.352112,472.269196 872.777222,472.586365 
z"/>
<path fill="#5A8367" opacity="1.000000" stroke="none" 
	d="
M278.656067,864.260010 
	C279.334808,865.190308 279.821014,866.354431 280.203003,867.766357 
	C279.553680,866.840698 279.008636,865.667297 278.656067,864.260010 
z"/>
<path fill="#5A8367" opacity="1.000000" stroke="none" 
	d="
M796.616394,873.979614 
	C796.882446,872.358215 797.483215,870.631958 798.367065,868.712402 
	C798.083740,870.304321 797.517395,872.089539 796.616394,873.979614 
z"/>
<path fill="#5A8367" opacity="1.000000" stroke="none" 
	d="
M715.976440,603.406006 
	C714.421021,603.063293 712.761658,602.395935 710.937256,601.437256 
	C712.472351,601.791077 714.172424,602.436279 715.976440,603.406006 
z"/>
<path fill="#5A8367" opacity="1.000000" stroke="none" 
	d="
M280.347656,869.819336 
	C281.271667,871.072205 282.099731,872.697388 282.924255,874.675293 
	C282.031006,873.415894 281.141357,871.803772 280.347656,869.819336 
z"/>
<path fill="#5A8367" opacity="1.000000" stroke="none" 
	d="
M793.358582,880.909363 
	C793.746155,879.343811 794.469421,877.679016 795.484619,875.839172 
	C795.082520,877.379456 794.388367,879.094788 793.358582,880.909363 
z"/>
<path fill="#5A8367" opacity="1.000000" stroke="none" 
	d="
M751.783081,640.041931 
	C750.881775,638.809998 750.046265,637.212708 749.242432,635.266479 
	C750.132385,636.503906 750.990723,638.090210 751.783081,640.041931 
z"/>
<path fill="#5A8367" opacity="1.000000" stroke="none" 
	d="
M744.754822,623.083374 
	C743.829102,621.848755 742.986450,620.245605 742.155334,618.293579 
	C743.057251,619.534790 743.947510,621.124756 744.754822,623.083374 
z"/>
<path fill="#5A8367" opacity="1.000000" stroke="none" 
	d="
M323.475830,650.047546 
	C323.233185,651.699219 322.651489,653.457764 321.777374,655.406616 
	C322.035553,653.782776 322.586212,651.968628 323.475830,650.047546 
z"/>
<path fill="#5A8367" opacity="1.000000" stroke="none" 
	d="
M436.969238,588.480835 
	C435.628723,588.237244 434.199432,587.648071 432.580200,586.785645 
	C433.886963,587.053406 435.383728,587.594299 436.969238,588.480835 
z"/>
<path fill="#5A8367" opacity="1.000000" stroke="none" 
	d="
M790.178833,753.795959 
	C789.516724,752.822266 789.030701,751.644958 788.642578,750.158081 
	C789.278687,751.096375 789.816772,752.344421 790.178833,753.795959 
z"/>
<path fill="#5A8367" opacity="1.000000" stroke="none" 
	d="
M284.265869,771.074585 
	C284.346039,772.264465 284.113129,773.638000 283.613098,775.242676 
	C283.548218,774.068604 283.750519,772.663452 284.265869,771.074585 
z"/>
<path fill="#5A8367" opacity="1.000000" stroke="none" 
	d="
M795.816956,776.068054 
	C795.235474,775.136658 794.774109,773.849487 794.410767,772.218079 
	C794.984802,773.153320 795.460938,774.432800 795.816956,776.068054 
z"/>
<path fill="#5A8367" opacity="1.000000" stroke="none" 
	d="
M664.927612,587.275818 
	C663.702393,587.411499 662.300537,587.216919 660.649780,586.764771 
	C661.850952,586.653259 663.300964,586.799438 664.927612,587.275818 
z"/>
<path fill="#5A8367" opacity="1.000000" stroke="none" 
	d="
M281.250397,784.065674 
	C281.349884,785.268555 281.125397,786.647095 280.645264,788.268494 
	C280.568542,787.088074 280.747467,785.664673 281.250397,784.065674 
z"/>
<path fill="#5A8367" opacity="1.000000" stroke="none" 
	d="
M798.721497,789.168823 
	C798.143677,788.213867 797.705200,786.898499 797.359985,785.233032 
	C797.922424,786.191528 798.391602,787.499939 798.721497,789.168823 
z"/>
<path fill="#5A8367" opacity="1.000000" stroke="none" 
	d="
M646.249878,586.409668 
	C645.275391,587.280579 643.945679,588.034241 642.281982,588.818115 
	C643.263489,587.996399 644.579102,587.144409 646.249878,586.409668 
z"/>
<path fill="#5A8367" opacity="1.000000" stroke="none" 
	d="
M418.232666,586.363037 
	C417.264038,586.950195 415.931213,587.380005 414.247375,587.713867 
	C415.220367,587.147034 416.544403,586.676331 418.232666,586.363037 
z"/>
<path fill="#5A8367" opacity="1.000000" stroke="none" 
	d="
M800.783569,860.933228 
	C800.635559,859.710938 800.812439,858.306091 801.249268,856.656494 
	C801.375732,857.858032 801.242126,859.304321 800.783569,860.933228 
z"/>
<path fill="#5A8367" opacity="1.000000" stroke="none" 
	d="
M277.362274,857.765930 
	C277.944000,858.737854 278.361206,860.072266 278.689941,861.757019 
	C278.133545,860.781006 277.665649,859.454773 277.362274,857.765930 
z"/>
<path fill="#5A8367" opacity="1.000000" stroke="none" 
	d="
M619.952271,608.198181 
	C619.498169,609.170959 618.688660,610.144897 617.561035,611.182007 
	C618.027588,610.229858 618.812256,609.214600 619.952271,608.198181 
z"/>
<path fill="#5A8367" opacity="1.000000" stroke="none" 
	d="
M783.176270,893.831909 
	C783.620972,892.860413 784.417053,891.880676 785.528564,890.824463 
	C785.071899,891.773315 784.299744,892.798462 783.176270,893.831909 
z"/>
<path fill="#5A8367" opacity="1.000000" stroke="none" 
	d="
M610.879700,617.237000 
	C610.432739,618.213135 609.631592,619.192200 608.512451,620.240784 
	C608.971497,619.286865 609.748474,618.263367 610.879700,617.237000 
z"/>
<path fill="#5A8367" opacity="1.000000" stroke="none" 
	d="
M613.890503,614.243286 
	C613.446655,615.201721 612.653381,616.160400 611.545776,617.177734 
	C612.001343,616.238831 612.771179,615.241211 613.890503,614.243286 
z"/>
<path fill="#5A8367" opacity="1.000000" stroke="none" 
	d="
M473.824341,622.927673 
	C472.847229,622.471924 471.873871,621.662048 470.837494,620.534424 
	C471.792328,621.002319 472.810211,621.787964 473.824341,622.927673 
z"/>
<path fill="#5A8367" opacity="1.000000" stroke="none" 
	d="
M470.780823,619.873535 
	C469.821625,619.424927 468.863861,618.627869 467.846863,617.516479 
	C468.785828,617.976379 469.784058,618.750732 470.780823,619.873535 
z"/>
<path fill="#5A8367" opacity="1.000000" stroke="none" 
	d="
M467.789185,616.862183 
	C466.833313,616.417480 465.870850,615.624756 464.847534,614.517639 
	C465.785309,614.973511 466.783936,615.743835 467.789185,616.862183 
z"/>
<path fill="#5A8367" opacity="1.000000" stroke="none" 
	d="
M616.892578,611.244141 
	C616.451233,612.205750 615.660156,613.165955 614.554626,614.184448 
	C615.007690,613.242737 615.775269,612.242676 616.892578,611.244141 
z"/>
<path fill="#5A8367" opacity="1.000000" stroke="none" 
	d="
M464.787811,613.862549 
	C463.832794,613.420288 462.871002,612.629578 461.844513,611.525757 
	C462.780212,611.979858 463.780640,612.746948 464.787811,613.862549 
z"/>
<path fill="#5A8367" opacity="1.000000" stroke="none" 
	d="
M461.778442,610.866699 
	C460.812714,610.414246 459.838837,609.609497 458.795837,608.487183 
	C459.741272,608.951294 460.755768,609.732849 461.778442,610.866699 
z"/>
<path fill="#5A8367" opacity="1.000000" stroke="none" 
	d="
M799.474121,866.002686 
	C799.377930,865.215637 799.569092,864.371704 799.980774,863.276917 
	C800.054688,863.999329 799.908081,864.972534 799.474121,866.002686 
z"/>
<path fill="#5A8367" opacity="1.000000" stroke="none" 
	d="
M285.552429,766.013794 
	C285.680725,766.805420 285.522552,767.662598 285.115845,768.749756 
	C285.000214,768.012939 285.133118,767.046143 285.552429,766.013794 
z"/>
<path fill="#5A8367" opacity="1.000000" stroke="none" 
	d="
M794.413086,769.752319 
	C793.846252,769.165710 793.479553,768.371338 793.194824,767.247559 
	C793.722168,767.793518 794.167664,768.669006 794.413086,769.752319 
z"/>
<path fill="#5A8367" opacity="1.000000" stroke="none" 
	d="
M797.373230,782.758728 
	C796.806702,782.173340 796.440186,781.378479 796.155640,780.255676 
	C796.682861,780.801514 797.128052,781.675415 797.373230,782.758728 
z"/>
<path fill="#5A8367" opacity="1.000000" stroke="none" 
	d="
M403.187744,589.281494 
	C402.526550,589.836487 401.527740,590.254333 400.201843,590.588623 
	C400.866577,590.051514 401.858368,589.597900 403.187744,589.281494 
z"/>
<path fill="#87A591" opacity="1.000000" stroke="none" 
	d="
M869.987061,475.436584 
	C870.868103,475.472870 871.877319,475.802155 872.987183,476.450500 
	C872.096985,476.422913 871.106079,476.076233 869.987061,475.436584 
z"/>
<path fill="#5A8367" opacity="1.000000" stroke="none" 
	d="
M288.536255,755.010254 
	C288.643066,755.800415 288.466187,756.657593 288.035187,757.740845 
	C287.938263,757.003723 288.095428,756.040466 288.536255,755.010254 
z"/>
<path fill="#5A8367" opacity="1.000000" stroke="none" 
	d="
M287.114197,760.035034 
	C287.210999,760.911743 287.013092,761.959229 286.552917,763.209595 
	C286.466949,762.343567 286.643250,761.274597 287.114197,760.035034 
z"/>
<path fill="#5A8367" opacity="1.000000" stroke="none" 
	d="
M678.966797,590.168823 
	C678.051208,590.299194 676.977417,590.111755 675.689026,589.666138 
	C676.585815,589.555725 677.697205,589.703369 678.966797,590.168823 
z"/>
<path fill="#5A8367" opacity="1.000000" stroke="none" 
	d="
M397.747437,590.605591 
	C397.172424,591.169250 396.379730,591.543640 395.259583,591.850342 
	C395.798004,591.327148 396.663849,590.871643 397.747437,590.605591 
z"/>
<path fill="#5A8367" opacity="1.000000" stroke="none" 
	d="
M684.014893,591.479858 
	C683.227783,591.581665 682.383545,591.398254 681.283447,590.999634 
	C682.004272,590.921204 682.980957,591.057983 684.014893,591.479858 
z"/>
<path fill="#5A8367" opacity="1.000000" stroke="none" 
	d="
M689.970093,593.197021 
	C689.082214,593.273010 688.041748,593.039124 686.796570,592.546265 
	C687.667053,592.487244 688.742310,592.687256 689.970093,593.197021 
z"/>
<path fill="#5A8367" opacity="1.000000" stroke="none" 
	d="
M771.956421,902.787415 
	C772.229370,902.205261 772.831360,901.664001 773.749268,901.128540 
	C773.471985,901.699036 772.878784,902.263672 771.956421,902.787415 
z"/>
<path fill="#5A8367" opacity="1.000000" stroke="none" 
	d="
M781.040955,895.817688 
	C781.209351,895.180054 781.717896,894.552002 782.534302,893.873596 
	C782.355164,894.491211 781.868164,895.159302 781.040955,895.817688 
z"/>
<path fill="#5A8367" opacity="1.000000" stroke="none" 
	d="
M728.973389,609.380005 
	C728.331238,609.430725 727.573242,609.170959 726.661072,608.636597 
	C727.290405,608.597839 728.074036,608.833618 728.973389,609.380005 
z"/>
<path fill="#5A8367" opacity="1.000000" stroke="none" 
	d="
M791.518494,883.978394 
	C791.531982,883.337158 791.857300,882.607178 792.474609,881.761353 
	C792.454468,882.393494 792.142395,883.141602 791.518494,883.978394 
z"/>
<path fill="#5A8367" opacity="1.000000" stroke="none" 
	d="
M284.407318,878.746826 
	C284.993134,879.073425 285.477905,879.735779 285.953613,880.709106 
	C285.398468,880.374268 284.852356,879.728455 284.407318,878.746826 
z"/>
<path fill="#5A8367" opacity="1.000000" stroke="none" 
	d="
M759.241089,659.809937 
	C758.710388,659.515320 758.356567,659.042786 758.052063,658.267944 
	C758.540222,658.521057 758.979187,659.076538 759.241089,659.809937 
z"/>
<path fill="#5A8367" opacity="1.000000" stroke="none" 
	d="
M352.175903,608.295105 
	C351.844574,608.852722 351.190674,609.326477 350.224731,609.752563 
	C350.559570,609.206970 351.206451,608.709106 352.175903,608.295105 
z"/>
<path fill="#5A8367" opacity="1.000000" stroke="none" 
	d="
M307.558899,694.975159 
	C307.686646,695.514038 307.557129,696.086365 307.165100,696.821289 
	C307.035614,696.325500 307.168610,695.666992 307.558899,694.975159 
z"/>
<path fill="#5A8367" opacity="1.000000" stroke="none" 
	d="
M306.150604,699.010376 
	C306.264496,699.641357 306.089600,700.414062 305.645142,701.344360 
	C305.537628,700.718689 305.699707,699.935486 306.150604,699.010376 
z"/>
<path fill="#5A8367" opacity="1.000000" stroke="none" 
	d="
M304.547424,703.966797 
	C304.662994,704.500793 304.521881,705.063477 304.132568,705.804321 
	C304.019806,705.320129 304.155273,704.657776 304.547424,703.966797 
z"/>
<path fill="#5A8367" opacity="1.000000" stroke="none" 
	d="
M303.157562,708.000488 
	C303.269226,708.636536 303.083740,709.403198 302.634216,710.332520 
	C302.533630,709.707092 302.697021,708.919067 303.157562,708.000488 
z"/>
<path fill="#5A8367" opacity="1.000000" stroke="none" 
	d="
M694.012695,594.592102 
	C693.478638,594.717834 692.908020,594.586731 692.174316,594.193481 
	C692.666199,594.066040 693.321228,594.200684 694.012695,594.592102 
z"/>
<path fill="#5A8367" opacity="1.000000" stroke="none" 
	d="
M635.917236,593.170532 
	C635.730835,593.785400 635.209595,594.413086 634.377686,595.091492 
	C634.572083,594.489258 635.077271,593.836243 635.917236,593.170532 
z"/>
<path fill="#5A8367" opacity="1.000000" stroke="none" 
	d="
M444.901123,594.778076 
	C444.281525,594.651611 443.611664,594.196350 442.862183,593.436829 
	C443.471954,593.571472 444.161407,594.010376 444.901123,594.778076 
z"/>
<path fill="#5A8367" opacity="1.000000" stroke="none" 
	d="
M640.957214,589.158569 
	C640.717102,589.749634 640.146301,590.310913 639.266479,590.894592 
	C639.513855,590.320923 640.070190,589.724854 640.957214,589.158569 
z"/>
<path fill="#5A8367" opacity="1.000000" stroke="none" 
	d="
M439.988983,590.559814 
	C439.365997,590.499451 438.673279,590.117798 437.856323,589.454224 
	C438.461182,589.527771 439.190216,589.883179 439.988983,590.559814 
z"/>
<path fill="#2D623E" opacity="1.000000" stroke="none" 
	d="
M466.620544,711.619873 
	C467.372467,711.519775 467.702576,711.453064 468.034210,711.443909 
	C480.963470,711.087402 480.963501,711.088135 480.963501,723.893494 
	C480.963501,728.861938 480.963501,733.830383 480.963501,739.775940 
	C487.844910,739.775940 494.261353,739.682251 500.673920,739.800171 
	C508.312958,739.940613 508.841614,740.561340 508.947235,748.235352 
	C509.135132,761.893738 509.135193,761.899414 495.248535,761.964111 
	C490.764496,761.984985 486.280273,761.967407 480.932983,761.967407 
	C480.932983,768.165649 480.969940,774.085876 480.924652,780.005432 
	C480.850586,789.686340 480.561035,789.956604 471.167725,789.897400 
	C461.534241,789.836731 461.117828,789.439941 460.984833,779.777710 
	C460.925201,775.445923 460.743469,771.101257 460.994934,766.784363 
	C461.206177,763.157471 460.133911,761.730347 456.268158,761.886414 
	C449.783234,762.148438 443.276703,761.858337 436.779144,761.831787 
	C433.001007,761.816345 431.181152,760.254211 430.833221,756.195557 
	C429.562042,741.366516 430.085907,740.689575 444.611389,740.614868 
	C449.075256,740.591919 455.107330,741.885376 457.549408,739.559998 
	C459.892487,737.328796 458.547852,731.189087 458.753143,726.763672 
	C458.853455,724.601562 458.767883,722.431580 458.809998,720.265930 
	C458.951385,712.994629 458.964478,712.988220 466.620544,711.619873 
z"/>
<path fill="#F3F6F4" opacity="1.000000" stroke="none" 
	d="
M367.785919,680.968079 
	C367.229218,680.076965 366.672485,679.185913 366.468811,678.147461 
	C367.474762,678.269714 368.127655,678.539368 369.676483,679.179016 
	C365.781799,668.960022 366.894806,659.787170 371.250824,650.961243 
	C375.944794,641.450623 382.260254,633.110291 392.942322,630.319336 
	C417.618195,623.872131 442.093658,638.810913 440.772247,668.375854 
	C440.038696,684.789246 428.633850,697.989014 412.533508,700.934326 
	C394.473145,702.807739 379.985901,698.210754 371.071442,681.587830 
	C370.740814,680.971252 368.914948,681.156494 367.785919,680.968079 
M432.305176,670.034851 
	C432.411835,668.709473 432.594818,667.385193 432.613342,666.058594 
	C432.805176,652.313477 422.633789,640.163269 409.084137,637.918030 
	C394.777496,635.547424 382.809357,643.030884 377.799164,657.480042 
	C373.625977,669.515320 379.368774,684.232300 391.333893,690.188293 
	C406.517822,697.746704 426.241638,692.721252 432.305176,670.034851 
z"/>
<path fill="#F4F6F4" opacity="1.000000" stroke="none" 
	d="
M572.943909,727.493652 
	C573.510010,726.953125 574.076111,726.412598 575.170410,725.757935 
	C576.551575,724.632202 577.431396,723.641846 578.253662,722.605896 
	C589.817505,708.036072 606.984924,704.222351 623.647278,712.530823 
	C639.279846,720.325867 646.599365,738.736511 641.572388,757.222534 
	C641.191772,758.622192 641.942200,760.329285 642.166870,761.893494 
	C641.888062,762.125183 641.609314,762.356812 640.823364,762.837463 
	C638.848633,764.638306 637.267761,766.098755 635.931824,767.756653 
	C626.506470,779.453674 611.089294,784.375671 596.553345,780.261780 
	C575.179077,774.212524 564.664490,753.205811 572.447937,732.273743 
	C572.988525,730.819946 572.795654,729.093384 572.943909,727.493652 
M610.882812,772.716919 
	C622.407471,770.950806 630.101929,764.369873 633.188721,753.317505 
	C636.443726,741.662903 633.914001,731.102966 624.129578,723.239685 
	C615.130859,716.007629 605.108948,714.920166 594.668335,719.863220 
	C582.838379,725.464050 576.126160,739.961426 579.285767,752.545166 
	C582.428528,765.061646 595.247314,773.520752 610.882812,772.716919 
z"/>
<path fill="#2E623F" opacity="1.000000" stroke="none" 
	d="
M651.053894,653.941895 
	C658.195923,662.945251 657.860535,673.024780 650.462646,679.641418 
	C643.460144,685.904419 633.411438,685.774658 626.502319,679.332153 
	C618.757812,672.110596 618.840027,662.041992 626.049072,653.531250 
	C630.510132,648.264709 645.080078,646.334839 651.053894,653.941895 
z"/>
<path fill="#2D623E" opacity="1.000000" stroke="none" 
	d="
M722.468018,653.521973 
	C732.419373,662.711060 728.035278,679.080811 715.059326,683.500488 
	C708.271240,685.812561 702.695129,683.412354 697.768921,678.853760 
	C692.061951,673.572754 691.378052,666.831848 693.513062,660.004944 
	C695.410339,653.938049 699.960144,650.017029 706.493347,649.020691 
	C712.320740,648.132019 717.779053,648.867493 722.468018,653.521973 
z"/>
<path fill="#2E623F" opacity="1.000000" stroke="none" 
	d="
M688.581665,690.533569 
	C694.364807,700.609863 692.381226,711.138489 683.964233,716.367065 
	C677.521301,720.369507 671.021912,720.300171 664.681763,716.250916 
	C658.807922,712.499634 656.158264,706.881470 656.899719,700.049988 
	C657.698364,692.690796 661.735535,687.367188 668.685913,684.605774 
	C675.865784,681.752991 682.206360,683.666870 688.581665,690.533569 
z"/>
<path fill="#2E623F" opacity="1.000000" stroke="none" 
	d="
M686.587708,618.365967 
	C692.453857,624.979797 693.479553,632.499756 689.761292,639.854736 
	C686.534973,646.236511 680.476196,649.749329 673.504761,649.280151 
	C666.283386,648.794128 659.654053,643.841125 657.549805,636.835266 
	C655.478516,629.939209 656.853394,623.665222 662.069763,618.455383 
	C667.303711,613.227905 673.604248,612.979736 680.173218,614.907776 
	C682.347168,615.545776 684.273071,617.029053 686.587708,618.365967 
z"/>
<path fill="#688E74" opacity="1.000000" stroke="none" 
	d="
M412.998566,700.995239 
	C428.633850,697.989014 440.038696,684.789246 440.772247,668.375854 
	C442.093658,638.810913 417.618195,623.872131 392.942322,630.319336 
	C382.260254,633.110291 375.944794,641.450623 371.250824,650.961243 
	C366.894806,659.787170 365.781799,668.960022 369.676483,679.179016 
	C368.127655,678.539368 367.474762,678.269714 366.513550,677.795044 
	C360.101654,656.106873 373.036377,634.230286 391.041077,627.967163 
	C418.660248,618.359619 442.928955,640.042358 443.318024,661.501648 
	C443.595917,676.827576 439.533875,689.341492 426.718567,698.247253 
	C424.185272,700.007629 421.119019,701.001099 417.636230,702.297363 
	C416.286041,702.547302 415.598145,702.848083 414.910278,703.148804 
	C414.515778,703.272888 414.121277,703.396973 413.407959,703.191772 
	C413.058990,702.240051 413.028778,701.617615 412.998566,700.995239 
z"/>
<path fill="#306441" opacity="1.000000" stroke="none" 
	d="
M585.406738,655.429810 
	C587.457886,658.735840 590.121033,661.685547 590.714417,665.005188 
	C591.812561,671.148804 586.452026,676.962036 580.502563,677.242615 
	C571.804199,677.652771 567.160278,673.762512 566.863098,665.816528 
	C566.601685,658.826355 571.464355,653.534790 578.422974,653.647278 
	C580.651672,653.683289 582.864746,654.682068 585.406738,655.429810 
z"/>
<path fill="#306441" opacity="1.000000" stroke="none" 
	d="
M502.604980,677.146790 
	C491.145599,677.371704 485.150970,669.413574 489.573212,660.448486 
	C492.343018,654.833252 497.626373,652.352051 503.638397,653.842834 
	C508.599274,655.072998 512.009338,659.473511 512.154236,664.832153 
	C512.333984,671.480408 509.415680,675.411560 502.604980,677.146790 
z"/>
<path fill="#678D73" opacity="1.000000" stroke="none" 
	d="
M572.537659,727.495605 
	C572.795654,729.093384 572.988525,730.819946 572.447937,732.273743 
	C564.664490,753.205811 575.179077,774.212524 596.553345,780.261780 
	C611.089294,784.375671 626.506470,779.453674 635.931824,767.756653 
	C637.267761,766.098755 638.848633,764.638306 640.655029,763.051636 
	C636.200989,775.216248 626.930481,781.739258 614.294312,783.750244 
	C594.270264,786.937134 576.522461,777.210205 568.912170,758.423279 
	C564.596252,747.769104 566.744324,737.360291 572.537659,727.495605 
z"/>
<path fill="#74967F" opacity="1.000000" stroke="none" 
	d="
M642.411987,761.641357 
	C641.942200,760.329285 641.191772,758.622192 641.572388,757.222534 
	C646.599365,738.736511 639.279846,720.325867 623.647278,712.530823 
	C606.984924,704.222351 589.817505,708.036072 578.253662,722.605896 
	C577.431396,723.641846 576.551575,724.632202 575.321167,725.578979 
	C575.109314,724.235779 574.830444,722.618896 575.507446,721.729919 
	C585.318604,708.845764 598.015686,703.124023 614.283447,706.351013 
	C631.238586,709.714417 643.094116,722.173706 645.260437,739.765625 
	C645.471619,740.982361 645.686279,741.501282 645.901001,742.020142 
	C645.882507,742.753723 645.864014,743.487305 645.557556,744.715576 
	C645.413452,745.826965 645.557373,746.443542 645.701294,747.060181 
	C645.748901,747.487915 645.796509,747.915588 645.674744,748.873535 
	C645.484375,749.972412 645.463440,750.541077 645.442505,751.109741 
	C644.513977,754.536194 643.585510,757.962708 642.411987,761.641357 
z"/>
<path fill="#83A28C" opacity="1.000000" stroke="none" 
	d="
M412.533508,700.934326 
	C413.028778,701.617615 413.058990,702.240051 413.095886,703.173706 
	C393.137787,707.048462 376.650055,699.073547 367.888184,681.316467 
	C368.914948,681.156494 370.740814,680.971252 371.071442,681.587830 
	C379.985901,698.210754 394.473145,702.807739 412.533508,700.934326 
z"/>
<path fill="#83A28C" opacity="1.000000" stroke="none" 
	d="
M415.191223,703.238342 
	C415.598145,702.848083 416.286041,702.547302 417.268097,702.309937 
	C416.865570,702.691467 416.168884,703.009705 415.191223,703.238342 
z"/>
<path fill="#DBE4DD" opacity="1.000000" stroke="none" 
	d="
M646.091919,741.868042 
	C645.686279,741.501282 645.471619,740.982361 645.330566,740.179016 
	C645.696960,740.501709 645.989868,741.108887 646.091919,741.868042 
z"/>
<path fill="#DBE4DD" opacity="1.000000" stroke="none" 
	d="
M645.944336,746.913818 
	C645.557373,746.443542 645.413452,745.826965 645.514160,745.079956 
	C645.901672,745.555542 646.044556,746.161438 645.944336,746.913818 
z"/>
<path fill="#DBE4DD" opacity="1.000000" stroke="none" 
	d="
M645.673035,751.022888 
	C645.463440,750.541077 645.484375,749.972412 645.712585,749.194336 
	C645.914368,749.635254 645.908997,750.285645 645.673035,751.022888 
z"/>
<path fill="#2B603C" opacity="1.000000" stroke="none" 
	d="
M567.992981,605.721558 
	C565.617554,620.575439 555.338501,629.908081 540.882141,630.733093 
	C526.773010,631.538269 514.672668,623.166748 510.996796,610.057129 
	C506.498505,594.014465 519.499023,577.835449 537.712524,576.809631 
	C554.630493,575.856750 567.908142,588.327026 567.992981,605.721558 
z"/>
<path fill="#C5D4CA" opacity="1.000000" stroke="none" 
	d="
M883.909668,479.792542 
	C883.428589,477.952637 883.251953,476.326599 883.075317,474.700562 
	C883.421814,474.445557 883.768250,474.190521 884.114685,473.935516 
	C886.902344,476.853149 888.038330,484.088562 894.384583,477.703369 
	C894.556335,478.317841 894.728027,478.932343 894.899780,479.546844 
	C893.297363,480.827850 891.841614,482.441345 890.027161,483.241669 
	C889.190674,483.610687 887.598267,482.487579 886.450806,481.855591 
	C885.618286,481.397095 884.953735,480.633789 883.909668,479.792542 
z"/>
<path fill="#2B603C" opacity="1.000000" stroke="none" 
	d="
M432.212372,670.466797 
	C426.241638,692.721252 406.517822,697.746704 391.333893,690.188293 
	C379.368774,684.232300 373.625977,669.515320 377.799164,657.480042 
	C382.809357,643.030884 394.777496,635.547424 409.084137,637.918030 
	C422.633789,640.163269 432.805176,652.313477 432.613342,666.058594 
	C432.594818,667.385193 432.411835,668.709473 432.212372,670.466797 
z"/>
<path fill="#2B603C" opacity="1.000000" stroke="none" 
	d="
M610.455139,772.774353 
	C595.247314,773.520752 582.428528,765.061646 579.285767,752.545166 
	C576.126160,739.961426 582.838379,725.464050 594.668335,719.863220 
	C605.108948,714.920166 615.130859,716.007629 624.129578,723.239685 
	C633.914001,731.102966 636.443726,741.662903 633.188721,753.317505 
	C630.101929,764.369873 622.407471,770.950806 610.455139,772.774353 
z"/>
</svg>